<mxfile host="Electron" agent="Mozilla/5.0 (X11; Linux x86_64) AppleWebKit/537.36 (KHTML, like Gecko) draw.io/26.0.4 Chrome/128.0.6613.186 Electron/32.2.5 Safari/537.36" version="26.0.4" pages="2">
  <diagram name="Page-1" id="58cdce13-f638-feb5-8d6f-7d28b1aa9fa0">
    <mxGraphModel dx="1690" dy="1543" grid="1" gridSize="10" guides="1" tooltips="1" connect="1" arrows="1" fold="1" page="1" pageScale="1" pageWidth="1100" pageHeight="850" background="none" math="0" shadow="0">
      <root>
        <mxCell id="0" />
        <mxCell id="1" parent="0" />
        <mxCell id="nV5HL2pbcmDkugjoNV7n-3" style="edgeStyle=orthogonalEdgeStyle;rounded=0;orthogonalLoop=1;jettySize=auto;html=1;exitX=0.5;exitY=0;exitDx=0;exitDy=0;entryX=0.5;entryY=1;entryDx=0;entryDy=0;" edge="1" parent="1" source="nV5HL2pbcmDkugjoNV7n-1" target="nV5HL2pbcmDkugjoNV7n-2">
          <mxGeometry relative="1" as="geometry" />
        </mxCell>
        <mxCell id="nV5HL2pbcmDkugjoNV7n-4" value="read &quot;#&quot;" style="edgeLabel;html=1;align=center;verticalAlign=middle;resizable=0;points=[];" vertex="1" connectable="0" parent="nV5HL2pbcmDkugjoNV7n-3">
          <mxGeometry x="-0.0163" y="2" relative="1" as="geometry">
            <mxPoint as="offset" />
          </mxGeometry>
        </mxCell>
        <mxCell id="nV5HL2pbcmDkugjoNV7n-1" value="q0 start" style="ellipse;whiteSpace=wrap;html=1;aspect=fixed;" vertex="1" parent="1">
          <mxGeometry x="80" y="320" width="80" height="80" as="geometry" />
        </mxCell>
        <mxCell id="nV5HL2pbcmDkugjoNV7n-9" style="edgeStyle=orthogonalEdgeStyle;rounded=0;orthogonalLoop=1;jettySize=auto;html=1;exitX=0.5;exitY=0;exitDx=0;exitDy=0;entryX=0.5;entryY=1;entryDx=0;entryDy=0;" edge="1" parent="1" source="nV5HL2pbcmDkugjoNV7n-2" target="nV5HL2pbcmDkugjoNV7n-8">
          <mxGeometry relative="1" as="geometry" />
        </mxCell>
        <mxCell id="nV5HL2pbcmDkugjoNV7n-10" value="read &quot;#&quot;" style="edgeLabel;html=1;align=center;verticalAlign=middle;resizable=0;points=[];" vertex="1" connectable="0" parent="nV5HL2pbcmDkugjoNV7n-9">
          <mxGeometry x="-0.0464" y="2" relative="1" as="geometry">
            <mxPoint as="offset" />
          </mxGeometry>
        </mxCell>
        <mxCell id="nV5HL2pbcmDkugjoNV7n-16" style="edgeStyle=orthogonalEdgeStyle;rounded=0;orthogonalLoop=1;jettySize=auto;html=1;exitX=0;exitY=0.5;exitDx=0;exitDy=0;entryX=1;entryY=0.5;entryDx=0;entryDy=0;" edge="1" parent="1" source="nV5HL2pbcmDkugjoNV7n-2" target="nV5HL2pbcmDkugjoNV7n-13">
          <mxGeometry relative="1" as="geometry" />
        </mxCell>
        <mxCell id="nV5HL2pbcmDkugjoNV7n-17" value="read SPACE" style="edgeLabel;html=1;align=center;verticalAlign=middle;resizable=0;points=[];" vertex="1" connectable="0" parent="nV5HL2pbcmDkugjoNV7n-16">
          <mxGeometry x="-0.0143" y="-2" relative="1" as="geometry">
            <mxPoint y="2" as="offset" />
          </mxGeometry>
        </mxCell>
        <mxCell id="nV5HL2pbcmDkugjoNV7n-2" value="q1 h1 definition" style="ellipse;whiteSpace=wrap;html=1;aspect=fixed;" vertex="1" parent="1">
          <mxGeometry x="80" y="160" width="80" height="80" as="geometry" />
        </mxCell>
        <mxCell id="nV5HL2pbcmDkugjoNV7n-24" style="edgeStyle=orthogonalEdgeStyle;rounded=0;orthogonalLoop=1;jettySize=auto;html=1;exitX=0;exitY=0.5;exitDx=0;exitDy=0;entryX=1;entryY=0.5;entryDx=0;entryDy=0;" edge="1" parent="1" source="nV5HL2pbcmDkugjoNV7n-8" target="nV5HL2pbcmDkugjoNV7n-20">
          <mxGeometry relative="1" as="geometry" />
        </mxCell>
        <mxCell id="nV5HL2pbcmDkugjoNV7n-25" value="read SPACE" style="edgeLabel;html=1;align=center;verticalAlign=middle;resizable=0;points=[];" vertex="1" connectable="0" parent="nV5HL2pbcmDkugjoNV7n-24">
          <mxGeometry x="-0.0286" y="-2" relative="1" as="geometry">
            <mxPoint as="offset" />
          </mxGeometry>
        </mxCell>
        <mxCell id="nV5HL2pbcmDkugjoNV7n-33" style="edgeStyle=orthogonalEdgeStyle;rounded=0;orthogonalLoop=1;jettySize=auto;html=1;exitX=0.5;exitY=0;exitDx=0;exitDy=0;entryX=0.5;entryY=1;entryDx=0;entryDy=0;" edge="1" parent="1" source="nV5HL2pbcmDkugjoNV7n-8" target="nV5HL2pbcmDkugjoNV7n-29">
          <mxGeometry relative="1" as="geometry" />
        </mxCell>
        <mxCell id="nV5HL2pbcmDkugjoNV7n-8" value="q3 h2 definition" style="ellipse;whiteSpace=wrap;html=1;aspect=fixed;" vertex="1" parent="1">
          <mxGeometry x="80" width="80" height="80" as="geometry" />
        </mxCell>
        <mxCell id="nV5HL2pbcmDkugjoNV7n-18" style="rounded=0;orthogonalLoop=1;jettySize=auto;html=1;exitX=0.5;exitY=1;exitDx=0;exitDy=0;entryX=0;entryY=0.5;entryDx=0;entryDy=0;" edge="1" parent="1" source="nV5HL2pbcmDkugjoNV7n-13" target="nV5HL2pbcmDkugjoNV7n-1">
          <mxGeometry relative="1" as="geometry" />
        </mxCell>
        <mxCell id="nV5HL2pbcmDkugjoNV7n-19" value="read newline" style="edgeLabel;html=1;align=center;verticalAlign=middle;resizable=0;points=[];" vertex="1" connectable="0" parent="nV5HL2pbcmDkugjoNV7n-18">
          <mxGeometry x="-0.1464" y="1" relative="1" as="geometry">
            <mxPoint as="offset" />
          </mxGeometry>
        </mxCell>
        <mxCell id="nV5HL2pbcmDkugjoNV7n-13" value="q2 h1 label" style="ellipse;whiteSpace=wrap;html=1;aspect=fixed;" vertex="1" parent="1">
          <mxGeometry x="-80" y="160" width="80" height="80" as="geometry" />
        </mxCell>
        <mxCell id="nV5HL2pbcmDkugjoNV7n-14" style="edgeStyle=orthogonalEdgeStyle;rounded=0;orthogonalLoop=1;jettySize=auto;html=1;exitX=1;exitY=0;exitDx=0;exitDy=0;entryX=0.5;entryY=0;entryDx=0;entryDy=0;curved=1;" edge="1" parent="1" source="nV5HL2pbcmDkugjoNV7n-13" target="nV5HL2pbcmDkugjoNV7n-13">
          <mxGeometry relative="1" as="geometry">
            <Array as="points">
              <mxPoint x="-12" y="150" />
              <mxPoint x="-40" y="150" />
            </Array>
          </mxGeometry>
        </mxCell>
        <mxCell id="nV5HL2pbcmDkugjoNV7n-15" value="read anything" style="edgeLabel;html=1;align=center;verticalAlign=middle;resizable=0;points=[];" vertex="1" connectable="0" parent="nV5HL2pbcmDkugjoNV7n-14">
          <mxGeometry x="0.0191" y="3" relative="1" as="geometry">
            <mxPoint x="10" y="-13" as="offset" />
          </mxGeometry>
        </mxCell>
        <mxCell id="nV5HL2pbcmDkugjoNV7n-26" style="edgeStyle=orthogonalEdgeStyle;rounded=0;orthogonalLoop=1;jettySize=auto;html=1;exitX=0;exitY=0.5;exitDx=0;exitDy=0;entryX=0;entryY=0.5;entryDx=0;entryDy=0;curved=1;" edge="1" parent="1" source="nV5HL2pbcmDkugjoNV7n-20" target="nV5HL2pbcmDkugjoNV7n-1">
          <mxGeometry relative="1" as="geometry" />
        </mxCell>
        <mxCell id="nV5HL2pbcmDkugjoNV7n-27" value="read newline" style="edgeLabel;html=1;align=center;verticalAlign=middle;resizable=0;points=[];" vertex="1" connectable="0" parent="nV5HL2pbcmDkugjoNV7n-26">
          <mxGeometry x="-0.6776" y="-2" relative="1" as="geometry">
            <mxPoint as="offset" />
          </mxGeometry>
        </mxCell>
        <mxCell id="nV5HL2pbcmDkugjoNV7n-20" value="q4 h2 label" style="ellipse;whiteSpace=wrap;html=1;aspect=fixed;" vertex="1" parent="1">
          <mxGeometry x="-80" width="80" height="80" as="geometry" />
        </mxCell>
        <mxCell id="nV5HL2pbcmDkugjoNV7n-21" style="edgeStyle=orthogonalEdgeStyle;rounded=0;orthogonalLoop=1;jettySize=auto;html=1;exitX=1;exitY=0;exitDx=0;exitDy=0;entryX=0.5;entryY=0;entryDx=0;entryDy=0;curved=1;" edge="1" parent="1" source="nV5HL2pbcmDkugjoNV7n-20" target="nV5HL2pbcmDkugjoNV7n-20">
          <mxGeometry relative="1" as="geometry">
            <Array as="points">
              <mxPoint x="-12" y="-10" />
              <mxPoint x="-40" y="-10" />
            </Array>
          </mxGeometry>
        </mxCell>
        <mxCell id="nV5HL2pbcmDkugjoNV7n-22" value="read anything" style="edgeLabel;html=1;align=center;verticalAlign=middle;resizable=0;points=[];" vertex="1" connectable="0" parent="nV5HL2pbcmDkugjoNV7n-21">
          <mxGeometry x="0.0191" y="3" relative="1" as="geometry">
            <mxPoint x="10" y="-13" as="offset" />
          </mxGeometry>
        </mxCell>
        <mxCell id="nV5HL2pbcmDkugjoNV7n-34" style="edgeStyle=orthogonalEdgeStyle;rounded=0;orthogonalLoop=1;jettySize=auto;html=1;exitX=0;exitY=0.5;exitDx=0;exitDy=0;entryX=1;entryY=0.5;entryDx=0;entryDy=0;" edge="1" parent="1" source="nV5HL2pbcmDkugjoNV7n-29" target="nV5HL2pbcmDkugjoNV7n-30">
          <mxGeometry relative="1" as="geometry" />
        </mxCell>
        <mxCell id="nV5HL2pbcmDkugjoNV7n-35" value="read SPACE" style="edgeLabel;html=1;align=center;verticalAlign=middle;resizable=0;points=[];" vertex="1" connectable="0" parent="nV5HL2pbcmDkugjoNV7n-34">
          <mxGeometry x="0.0643" y="-2" relative="1" as="geometry">
            <mxPoint x="3" y="2" as="offset" />
          </mxGeometry>
        </mxCell>
        <mxCell id="nV5HL2pbcmDkugjoNV7n-29" value="q5 h3 definition" style="ellipse;whiteSpace=wrap;html=1;aspect=fixed;" vertex="1" parent="1">
          <mxGeometry x="80" y="-160.03" width="80" height="80" as="geometry" />
        </mxCell>
        <mxCell id="nV5HL2pbcmDkugjoNV7n-36" style="edgeStyle=orthogonalEdgeStyle;rounded=0;orthogonalLoop=1;jettySize=auto;html=1;exitX=0;exitY=0.5;exitDx=0;exitDy=0;curved=1;" edge="1" parent="1" source="nV5HL2pbcmDkugjoNV7n-30">
          <mxGeometry relative="1" as="geometry">
            <mxPoint x="80" y="362.2857142857143" as="targetPoint" />
            <Array as="points">
              <mxPoint x="-150" y="-120" />
              <mxPoint x="-150" y="362" />
            </Array>
          </mxGeometry>
        </mxCell>
        <mxCell id="nV5HL2pbcmDkugjoNV7n-37" value="read newline" style="edgeLabel;html=1;align=center;verticalAlign=middle;resizable=0;points=[];" vertex="1" connectable="0" parent="nV5HL2pbcmDkugjoNV7n-36">
          <mxGeometry x="-0.5987" y="-2" relative="1" as="geometry">
            <mxPoint as="offset" />
          </mxGeometry>
        </mxCell>
        <mxCell id="nV5HL2pbcmDkugjoNV7n-30" value="q6 h3 label" style="ellipse;whiteSpace=wrap;html=1;aspect=fixed;" vertex="1" parent="1">
          <mxGeometry x="-80" y="-160.03" width="80" height="80" as="geometry" />
        </mxCell>
        <mxCell id="nV5HL2pbcmDkugjoNV7n-31" style="edgeStyle=orthogonalEdgeStyle;rounded=0;orthogonalLoop=1;jettySize=auto;html=1;exitX=1;exitY=0;exitDx=0;exitDy=0;entryX=0.5;entryY=0;entryDx=0;entryDy=0;curved=1;" edge="1" parent="1" source="nV5HL2pbcmDkugjoNV7n-30" target="nV5HL2pbcmDkugjoNV7n-30">
          <mxGeometry relative="1" as="geometry">
            <Array as="points">
              <mxPoint x="-12" y="-170.03" />
              <mxPoint x="-40" y="-170.03" />
            </Array>
          </mxGeometry>
        </mxCell>
        <mxCell id="nV5HL2pbcmDkugjoNV7n-32" value="read anything" style="edgeLabel;html=1;align=center;verticalAlign=middle;resizable=0;points=[];" vertex="1" connectable="0" parent="nV5HL2pbcmDkugjoNV7n-31">
          <mxGeometry x="0.0191" y="3" relative="1" as="geometry">
            <mxPoint x="10" y="-13" as="offset" />
          </mxGeometry>
        </mxCell>
      </root>
    </mxGraphModel>
  </diagram>
  <diagram id="GkBOB8bshMa1IGw9WA-R" name="Page-2">
    <mxGraphModel dx="5309" dy="3055" grid="1" gridSize="10" guides="1" tooltips="1" connect="1" arrows="1" fold="1" page="1" pageScale="1" pageWidth="1100" pageHeight="850" math="0" shadow="0">
      <root>
        <mxCell id="0" />
        <mxCell id="1" parent="0" />
        <mxCell id="rBGxycTvPe3GtGC3Vjkf-291" value="" style="rounded=0;whiteSpace=wrap;html=1;" vertex="1" parent="1">
          <mxGeometry x="1449.91" y="-190" width="1500.09" height="650" as="geometry" />
        </mxCell>
        <mxCell id="rBGxycTvPe3GtGC3Vjkf-289" value="" style="rounded=0;whiteSpace=wrap;html=1;" vertex="1" parent="1">
          <mxGeometry x="-245" y="540" width="3190" height="1490" as="geometry" />
        </mxCell>
        <mxCell id="rBGxycTvPe3GtGC3Vjkf-286" value="" style="rounded=0;whiteSpace=wrap;html=1;" vertex="1" parent="1">
          <mxGeometry x="-245" y="-190" width="1635" height="650" as="geometry" />
        </mxCell>
        <mxCell id="rBGxycTvPe3GtGC3Vjkf-102" value="1 byte" style="whiteSpace=wrap;html=1;aspect=fixed;" vertex="1" parent="1">
          <mxGeometry x="734.91" y="701.25" width="140" height="140" as="geometry" />
        </mxCell>
        <mxCell id="rBGxycTvPe3GtGC3Vjkf-14" value="" style="rounded=0;whiteSpace=wrap;html=1;" vertex="1" parent="1">
          <mxGeometry x="290" y="130" width="130" height="250" as="geometry" />
        </mxCell>
        <mxCell id="kcycf7f6CgGDffXkoRQT-20" value="" style="rounded=0;whiteSpace=wrap;html=1;" parent="1" vertex="1">
          <mxGeometry x="-20" y="130" width="310" height="250" as="geometry" />
        </mxCell>
        <mxCell id="kcycf7f6CgGDffXkoRQT-5" value="" style="rounded=0;whiteSpace=wrap;html=1;" parent="1" vertex="1">
          <mxGeometry x="-10" y="-100" width="700" height="150" as="geometry" />
        </mxCell>
        <mxCell id="rBGxycTvPe3GtGC3Vjkf-66" style="edgeStyle=orthogonalEdgeStyle;rounded=0;orthogonalLoop=1;jettySize=auto;html=1;exitX=0.5;exitY=1;exitDx=0;exitDy=0;entryX=0.5;entryY=0;entryDx=0;entryDy=0;strokeColor=#FF0000;" edge="1" parent="1" source="kcycf7f6CgGDffXkoRQT-2" target="kcycf7f6CgGDffXkoRQT-20">
          <mxGeometry relative="1" as="geometry" />
        </mxCell>
        <mxCell id="kcycf7f6CgGDffXkoRQT-2" value="8 bytes" style="whiteSpace=wrap;html=1;aspect=fixed;" parent="1" vertex="1">
          <mxGeometry x="90" y="-50" width="80" height="80" as="geometry" />
        </mxCell>
        <mxCell id="rBGxycTvPe3GtGC3Vjkf-54" style="edgeStyle=orthogonalEdgeStyle;rounded=0;orthogonalLoop=1;jettySize=auto;html=1;exitX=0.5;exitY=1;exitDx=0;exitDy=0;entryX=0.5;entryY=0;entryDx=0;entryDy=0;strokeColor=#FF0000;" edge="1" parent="1" source="kcycf7f6CgGDffXkoRQT-3" target="rBGxycTvPe3GtGC3Vjkf-20">
          <mxGeometry relative="1" as="geometry" />
        </mxCell>
        <mxCell id="kcycf7f6CgGDffXkoRQT-3" value="8 bytes" style="whiteSpace=wrap;html=1;aspect=fixed;" parent="1" vertex="1">
          <mxGeometry x="10" y="-50" width="80" height="80" as="geometry" />
        </mxCell>
        <mxCell id="rBGxycTvPe3GtGC3Vjkf-80" style="edgeStyle=orthogonalEdgeStyle;rounded=0;orthogonalLoop=1;jettySize=auto;html=1;exitX=0.5;exitY=1;exitDx=0;exitDy=0;entryX=0.5;entryY=0;entryDx=0;entryDy=0;strokeColor=#FF0000;" edge="1" parent="1" source="kcycf7f6CgGDffXkoRQT-4" target="rBGxycTvPe3GtGC3Vjkf-11">
          <mxGeometry relative="1" as="geometry">
            <Array as="points">
              <mxPoint x="290" y="90" />
              <mxPoint x="525" y="90" />
            </Array>
          </mxGeometry>
        </mxCell>
        <mxCell id="kcycf7f6CgGDffXkoRQT-4" value="8 bytes" style="whiteSpace=wrap;html=1;aspect=fixed;" parent="1" vertex="1">
          <mxGeometry x="250" y="-50" width="80" height="80" as="geometry" />
        </mxCell>
        <mxCell id="kcycf7f6CgGDffXkoRQT-6" value="struct session" style="text;html=1;align=center;verticalAlign=middle;resizable=0;points=[];autosize=1;strokeColor=none;fillColor=none;" parent="1" vertex="1">
          <mxGeometry y="-80" width="100" height="30" as="geometry" />
        </mxCell>
        <mxCell id="kcycf7f6CgGDffXkoRQT-21" value="&lt;b&gt;Array of keystroke structs&lt;/b&gt;" style="text;html=1;align=center;verticalAlign=middle;resizable=0;points=[];autosize=1;strokeColor=none;fillColor=none;" parent="1" vertex="1">
          <mxGeometry x="50" y="130" width="170" height="30" as="geometry" />
        </mxCell>
        <mxCell id="kcycf7f6CgGDffXkoRQT-41" style="edgeStyle=orthogonalEdgeStyle;rounded=0;orthogonalLoop=1;jettySize=auto;html=1;exitX=0.5;exitY=1;exitDx=0;exitDy=0;entryX=0.5;entryY=1;entryDx=0;entryDy=0;" parent="1" target="kcycf7f6CgGDffXkoRQT-35" edge="1">
          <mxGeometry relative="1" as="geometry">
            <Array as="points">
              <mxPoint x="600" y="340" />
              <mxPoint x="730" y="340" />
            </Array>
            <mxPoint x="600.0000000000005" y="290" as="sourcePoint" />
          </mxGeometry>
        </mxCell>
        <mxCell id="kcycf7f6CgGDffXkoRQT-69" value="keystrokes" style="text;html=1;align=center;verticalAlign=middle;resizable=0;points=[];autosize=1;strokeColor=none;fillColor=none;" parent="1" vertex="1">
          <mxGeometry x="90" y="-40" width="80" height="30" as="geometry" />
        </mxCell>
        <mxCell id="kcycf7f6CgGDffXkoRQT-70" value="# of keystrokes" style="text;html=1;align=center;verticalAlign=middle;resizable=0;points=[];autosize=1;strokeColor=none;fillColor=none;" parent="1" vertex="1">
          <mxGeometry y="-40" width="100" height="30" as="geometry" />
        </mxCell>
        <mxCell id="kcycf7f6CgGDffXkoRQT-112" value="&lt;font style=&quot;font-size: 18px;&quot;&gt;# read number of sessions&lt;/font&gt;&lt;div&gt;&lt;font size=&quot;3&quot;&gt;number_of_sessions = input_file.read(8)&lt;/font&gt;&lt;/div&gt;&lt;div&gt;&lt;font size=&quot;3&quot;&gt;sessions_read = 0&lt;/font&gt;&lt;/div&gt;&lt;div&gt;&lt;font size=&quot;3&quot;&gt;&lt;br&gt;&lt;/font&gt;&lt;/div&gt;&lt;div&gt;&lt;font size=&quot;3&quot;&gt;while sessions_read &amp;lt; number_of_sessions:&lt;/font&gt;&lt;/div&gt;&lt;div&gt;&lt;font size=&quot;3&quot;&gt;&lt;span style=&quot;white-space: pre;&quot;&gt;&#x9;&lt;/span&gt;# read number of keystrokes&lt;/font&gt;&lt;/div&gt;&lt;div&gt;&lt;font size=&quot;3&quot;&gt;&lt;span style=&quot;white-space: pre;&quot;&gt;&#x9;&lt;/span&gt;number_of_keystrokes = input_file.read(8)&lt;br&gt;&lt;/font&gt;&lt;/div&gt;&lt;div&gt;&lt;font size=&quot;3&quot;&gt;&lt;br&gt;&lt;/font&gt;&lt;/div&gt;&lt;div&gt;&lt;font size=&quot;3&quot;&gt;&lt;span style=&quot;white-space: pre;&quot;&gt;&#x9;&lt;/span&gt;# read&amp;nbsp; character for keystroke&lt;br&gt;&lt;/font&gt;&lt;/div&gt;&lt;div&gt;&lt;font size=&quot;3&quot;&gt;&lt;span style=&quot;white-space: pre;&quot;&gt;&#x9;&lt;/span&gt;character = input_file.read(1)&lt;br&gt;&lt;/font&gt;&lt;/div&gt;&lt;div&gt;&lt;br&gt;&lt;/div&gt;" style="text;html=1;align=left;verticalAlign=middle;resizable=0;points=[];autosize=1;strokeColor=none;fillColor=none;" parent="1" vertex="1">
          <mxGeometry x="1470" y="-125" width="360" height="220" as="geometry" />
        </mxCell>
        <mxCell id="rBGxycTvPe3GtGC3Vjkf-79" style="edgeStyle=orthogonalEdgeStyle;rounded=0;orthogonalLoop=1;jettySize=auto;html=1;exitX=0.5;exitY=1;exitDx=0;exitDy=0;entryX=0.5;entryY=0;entryDx=0;entryDy=0;strokeColor=#FF0000;" edge="1" parent="1" source="rBGxycTvPe3GtGC3Vjkf-1" target="rBGxycTvPe3GtGC3Vjkf-14">
          <mxGeometry relative="1" as="geometry">
            <Array as="points">
              <mxPoint x="210" y="110" />
              <mxPoint x="355" y="110" />
            </Array>
          </mxGeometry>
        </mxCell>
        <mxCell id="rBGxycTvPe3GtGC3Vjkf-1" value="8 bytes" style="whiteSpace=wrap;html=1;aspect=fixed;" vertex="1" parent="1">
          <mxGeometry x="170" y="-50" width="80" height="80" as="geometry" />
        </mxCell>
        <mxCell id="rBGxycTvPe3GtGC3Vjkf-2" value="time deltas&amp;nbsp;&lt;div&gt;length&lt;/div&gt;" style="text;html=1;align=center;verticalAlign=middle;resizable=0;points=[];autosize=1;strokeColor=none;fillColor=none;" vertex="1" parent="1">
          <mxGeometry x="170" y="-50" width="80" height="40" as="geometry" />
        </mxCell>
        <mxCell id="rBGxycTvPe3GtGC3Vjkf-82" style="edgeStyle=orthogonalEdgeStyle;rounded=0;orthogonalLoop=1;jettySize=auto;html=1;entryX=0.5;entryY=0;entryDx=0;entryDy=0;strokeColor=#FF0000;" edge="1" parent="1" source="rBGxycTvPe3GtGC3Vjkf-3" target="rBGxycTvPe3GtGC3Vjkf-33">
          <mxGeometry relative="1" as="geometry">
            <Array as="points">
              <mxPoint x="450" y="-120" />
              <mxPoint x="865" y="-120" />
            </Array>
          </mxGeometry>
        </mxCell>
        <mxCell id="rBGxycTvPe3GtGC3Vjkf-3" value="8 bytes" style="whiteSpace=wrap;html=1;aspect=fixed;" vertex="1" parent="1">
          <mxGeometry x="410" y="-50" width="80" height="80" as="geometry" />
        </mxCell>
        <mxCell id="rBGxycTvPe3GtGC3Vjkf-81" style="edgeStyle=orthogonalEdgeStyle;rounded=0;orthogonalLoop=1;jettySize=auto;html=1;exitX=0.5;exitY=1;exitDx=0;exitDy=0;entryX=0.5;entryY=0;entryDx=0;entryDy=0;strokeColor=#FF0000;" edge="1" parent="1" source="rBGxycTvPe3GtGC3Vjkf-4" target="rBGxycTvPe3GtGC3Vjkf-32">
          <mxGeometry relative="1" as="geometry">
            <Array as="points">
              <mxPoint x="370" y="70" />
              <mxPoint x="695" y="70" />
            </Array>
          </mxGeometry>
        </mxCell>
        <mxCell id="rBGxycTvPe3GtGC3Vjkf-4" value="8 bytes" style="whiteSpace=wrap;html=1;aspect=fixed;" vertex="1" parent="1">
          <mxGeometry x="330" y="-50" width="80" height="80" as="geometry" />
        </mxCell>
        <mxCell id="rBGxycTvPe3GtGC3Vjkf-72" style="edgeStyle=orthogonalEdgeStyle;rounded=0;orthogonalLoop=1;jettySize=auto;html=1;exitX=1;exitY=0.5;exitDx=0;exitDy=0;entryX=0.5;entryY=0;entryDx=0;entryDy=0;strokeColor=#FF0000;" edge="1" parent="1" source="rBGxycTvPe3GtGC3Vjkf-5" target="rBGxycTvPe3GtGC3Vjkf-40">
          <mxGeometry relative="1" as="geometry" />
        </mxCell>
        <mxCell id="rBGxycTvPe3GtGC3Vjkf-5" value="8 bytes" style="whiteSpace=wrap;html=1;aspect=fixed;" vertex="1" parent="1">
          <mxGeometry x="570" y="-50" width="80" height="80" as="geometry" />
        </mxCell>
        <mxCell id="rBGxycTvPe3GtGC3Vjkf-71" style="edgeStyle=orthogonalEdgeStyle;rounded=0;orthogonalLoop=1;jettySize=auto;html=1;exitX=0.5;exitY=0;exitDx=0;exitDy=0;entryX=0.5;entryY=0;entryDx=0;entryDy=0;strokeColor=#FF0000;" edge="1" parent="1" source="rBGxycTvPe3GtGC3Vjkf-6" target="rBGxycTvPe3GtGC3Vjkf-39">
          <mxGeometry relative="1" as="geometry" />
        </mxCell>
        <mxCell id="rBGxycTvPe3GtGC3Vjkf-6" value="8 bytes" style="whiteSpace=wrap;html=1;aspect=fixed;" vertex="1" parent="1">
          <mxGeometry x="490" y="-50" width="80" height="80" as="geometry" />
        </mxCell>
        <mxCell id="rBGxycTvPe3GtGC3Vjkf-7" value="dwell times" style="text;html=1;align=center;verticalAlign=middle;resizable=0;points=[];autosize=1;strokeColor=none;fillColor=none;" vertex="1" parent="1">
          <mxGeometry x="410" y="-50" width="80" height="30" as="geometry" />
        </mxCell>
        <mxCell id="rBGxycTvPe3GtGC3Vjkf-8" value="&lt;span style=&quot;color: rgb(0, 0, 0); font-family: Helvetica; font-size: 12px; font-style: normal; font-variant-ligatures: normal; font-variant-caps: normal; font-weight: 400; letter-spacing: normal; orphans: 2; text-align: center; text-indent: 0px; text-transform: none; widows: 2; word-spacing: 0px; -webkit-text-stroke-width: 0px; white-space: nowrap; background-color: rgb(251, 251, 251); text-decoration-thickness: initial; text-decoration-style: initial; text-decoration-color: initial; float: none; display: inline !important;&quot;&gt;flight times&lt;/span&gt;" style="text;whiteSpace=wrap;html=1;" vertex="1" parent="1">
          <mxGeometry x="580" y="-45" width="90" height="40" as="geometry" />
        </mxCell>
        <mxCell id="rBGxycTvPe3GtGC3Vjkf-9" value="dwell times&lt;div&gt;length&lt;/div&gt;" style="text;html=1;align=center;verticalAlign=middle;resizable=0;points=[];autosize=1;strokeColor=none;fillColor=none;" vertex="1" parent="1">
          <mxGeometry x="330" y="-50" width="80" height="40" as="geometry" />
        </mxCell>
        <mxCell id="rBGxycTvPe3GtGC3Vjkf-10" value="&lt;span style=&quot;color: rgb(0, 0, 0); font-family: Helvetica; font-size: 12px; font-style: normal; font-variant-ligatures: normal; font-variant-caps: normal; font-weight: 400; letter-spacing: normal; orphans: 2; text-align: center; text-indent: 0px; text-transform: none; widows: 2; word-spacing: 0px; -webkit-text-stroke-width: 0px; white-space: nowrap; background-color: rgb(251, 251, 251); text-decoration-thickness: initial; text-decoration-style: initial; text-decoration-color: initial; float: none; display: inline !important;&quot;&gt;flight times&lt;/span&gt;&lt;div style=&quot;forced-color-adjust: none; color: rgb(0, 0, 0); font-family: Helvetica; font-size: 12px; font-style: normal; font-variant-ligatures: normal; font-variant-caps: normal; font-weight: 400; letter-spacing: normal; orphans: 2; text-align: center; text-indent: 0px; text-transform: none; widows: 2; word-spacing: 0px; -webkit-text-stroke-width: 0px; white-space: nowrap; background-color: rgb(251, 251, 251); text-decoration-thickness: initial; text-decoration-style: initial; text-decoration-color: initial;&quot;&gt;length&lt;/div&gt;" style="text;whiteSpace=wrap;html=1;" vertex="1" parent="1">
          <mxGeometry x="500" y="-40" width="90" height="50" as="geometry" />
        </mxCell>
        <mxCell id="rBGxycTvPe3GtGC3Vjkf-11" value="" style="rounded=0;whiteSpace=wrap;html=1;" vertex="1" parent="1">
          <mxGeometry x="420" y="130" width="210" height="250" as="geometry" />
        </mxCell>
        <mxCell id="rBGxycTvPe3GtGC3Vjkf-12" value="&lt;b&gt;Array of unsigned longs&lt;/b&gt;" style="text;html=1;align=center;verticalAlign=middle;resizable=0;points=[];autosize=1;strokeColor=none;fillColor=none;" vertex="1" parent="1">
          <mxGeometry x="445" y="140" width="160" height="30" as="geometry" />
        </mxCell>
        <mxCell id="kcycf7f6CgGDffXkoRQT-72" value="time deltas" style="text;html=1;align=center;verticalAlign=middle;resizable=0;points=[];autosize=1;strokeColor=none;fillColor=none;" parent="1" vertex="1">
          <mxGeometry x="250" y="-50" width="80" height="30" as="geometry" />
        </mxCell>
        <mxCell id="rBGxycTvPe3GtGC3Vjkf-13" value="8 bytes&amp;nbsp;" style="whiteSpace=wrap;html=1;aspect=fixed;" vertex="1" parent="1">
          <mxGeometry x="315" y="210" width="80" height="80" as="geometry" />
        </mxCell>
        <mxCell id="rBGxycTvPe3GtGC3Vjkf-15" value="&lt;b&gt;a singular number&lt;/b&gt;" style="text;html=1;align=center;verticalAlign=middle;resizable=0;points=[];autosize=1;strokeColor=none;fillColor=none;" vertex="1" parent="1">
          <mxGeometry x="290" y="140" width="130" height="30" as="geometry" />
        </mxCell>
        <mxCell id="rBGxycTvPe3GtGC3Vjkf-20" value="" style="rounded=0;whiteSpace=wrap;html=1;" vertex="1" parent="1">
          <mxGeometry x="-150" y="130" width="130" height="250" as="geometry" />
        </mxCell>
        <mxCell id="rBGxycTvPe3GtGC3Vjkf-21" value="8 bytes&amp;nbsp;" style="whiteSpace=wrap;html=1;aspect=fixed;" vertex="1" parent="1">
          <mxGeometry x="-125" y="220" width="80" height="80" as="geometry" />
        </mxCell>
        <mxCell id="rBGxycTvPe3GtGC3Vjkf-22" value="&lt;b&gt;a singular number&lt;/b&gt;" style="text;html=1;align=center;verticalAlign=middle;resizable=0;points=[];autosize=1;strokeColor=none;fillColor=none;" vertex="1" parent="1">
          <mxGeometry x="-150" y="130" width="130" height="30" as="geometry" />
        </mxCell>
        <mxCell id="rBGxycTvPe3GtGC3Vjkf-24" value="size in bytes&amp;nbsp;&lt;div&gt;=&lt;div&gt;&amp;nbsp;8 * previously read number&lt;/div&gt;&lt;/div&gt;" style="text;html=1;align=center;verticalAlign=middle;resizable=0;points=[];autosize=1;strokeColor=none;fillColor=none;" vertex="1" parent="1">
          <mxGeometry x="445" y="210" width="170" height="60" as="geometry" />
        </mxCell>
        <mxCell id="rBGxycTvPe3GtGC3Vjkf-26" value="size in bytes&amp;nbsp;&lt;div&gt;=&lt;div&gt;&amp;nbsp;17 * previously read number&lt;/div&gt;&lt;/div&gt;" style="text;html=1;align=center;verticalAlign=middle;resizable=0;points=[];autosize=1;strokeColor=none;fillColor=none;" vertex="1" parent="1">
          <mxGeometry x="45" y="150" width="180" height="60" as="geometry" />
        </mxCell>
        <mxCell id="rBGxycTvPe3GtGC3Vjkf-30" value="amount of&amp;nbsp;&lt;div&gt;keystrokes&lt;div&gt;to read&lt;/div&gt;&lt;/div&gt;" style="text;html=1;align=center;verticalAlign=middle;resizable=0;points=[];autosize=1;strokeColor=none;fillColor=none;" vertex="1" parent="1">
          <mxGeometry x="-125" y="310" width="80" height="60" as="geometry" />
        </mxCell>
        <mxCell id="rBGxycTvPe3GtGC3Vjkf-31" value="amount of unsigned&lt;div&gt;longs to read&lt;/div&gt;" style="text;html=1;align=center;verticalAlign=middle;resizable=0;points=[];autosize=1;strokeColor=none;fillColor=none;" vertex="1" parent="1">
          <mxGeometry x="290" y="290" width="130" height="40" as="geometry" />
        </mxCell>
        <mxCell id="rBGxycTvPe3GtGC3Vjkf-32" value="" style="rounded=0;whiteSpace=wrap;html=1;" vertex="1" parent="1">
          <mxGeometry x="630" y="130" width="130" height="250" as="geometry" />
        </mxCell>
        <mxCell id="rBGxycTvPe3GtGC3Vjkf-33" value="" style="rounded=0;whiteSpace=wrap;html=1;" vertex="1" parent="1">
          <mxGeometry x="760" y="130" width="210" height="250" as="geometry" />
        </mxCell>
        <mxCell id="rBGxycTvPe3GtGC3Vjkf-34" value="&lt;b&gt;Array of unsigned longs&lt;/b&gt;" style="text;html=1;align=center;verticalAlign=middle;resizable=0;points=[];autosize=1;strokeColor=none;fillColor=none;" vertex="1" parent="1">
          <mxGeometry x="780" y="140" width="160" height="30" as="geometry" />
        </mxCell>
        <mxCell id="rBGxycTvPe3GtGC3Vjkf-35" value="8 bytes&amp;nbsp;" style="whiteSpace=wrap;html=1;aspect=fixed;" vertex="1" parent="1">
          <mxGeometry x="655" y="210" width="80" height="80" as="geometry" />
        </mxCell>
        <mxCell id="rBGxycTvPe3GtGC3Vjkf-36" value="&lt;b&gt;a singular number&lt;/b&gt;" style="text;html=1;align=center;verticalAlign=middle;resizable=0;points=[];autosize=1;strokeColor=none;fillColor=none;" vertex="1" parent="1">
          <mxGeometry x="630" y="140" width="130" height="30" as="geometry" />
        </mxCell>
        <mxCell id="rBGxycTvPe3GtGC3Vjkf-37" value="size in bytes&amp;nbsp;&lt;div&gt;=&lt;div&gt;&amp;nbsp;8 * previously read number&lt;/div&gt;&lt;/div&gt;" style="text;html=1;align=center;verticalAlign=middle;resizable=0;points=[];autosize=1;strokeColor=none;fillColor=none;" vertex="1" parent="1">
          <mxGeometry x="780" y="220" width="170" height="60" as="geometry" />
        </mxCell>
        <mxCell id="rBGxycTvPe3GtGC3Vjkf-38" value="amount of unsigned&lt;div&gt;longs to read&lt;/div&gt;" style="text;html=1;align=center;verticalAlign=middle;resizable=0;points=[];autosize=1;strokeColor=none;fillColor=none;" vertex="1" parent="1">
          <mxGeometry x="630" y="290" width="130" height="40" as="geometry" />
        </mxCell>
        <mxCell id="rBGxycTvPe3GtGC3Vjkf-39" value="" style="rounded=0;whiteSpace=wrap;html=1;" vertex="1" parent="1">
          <mxGeometry x="970" y="130" width="130" height="250" as="geometry" />
        </mxCell>
        <mxCell id="rBGxycTvPe3GtGC3Vjkf-40" value="" style="rounded=0;whiteSpace=wrap;html=1;" vertex="1" parent="1">
          <mxGeometry x="1100" y="130" width="210" height="250" as="geometry" />
        </mxCell>
        <mxCell id="rBGxycTvPe3GtGC3Vjkf-41" value="&lt;b&gt;Array of unsigned longs&lt;/b&gt;" style="text;html=1;align=center;verticalAlign=middle;resizable=0;points=[];autosize=1;strokeColor=none;fillColor=none;" vertex="1" parent="1">
          <mxGeometry x="1130" y="130" width="160" height="30" as="geometry" />
        </mxCell>
        <mxCell id="rBGxycTvPe3GtGC3Vjkf-42" value="8 bytes&amp;nbsp;" style="whiteSpace=wrap;html=1;aspect=fixed;" vertex="1" parent="1">
          <mxGeometry x="995" y="210" width="80" height="80" as="geometry" />
        </mxCell>
        <mxCell id="rBGxycTvPe3GtGC3Vjkf-43" value="&lt;b&gt;a singular number&lt;/b&gt;" style="text;html=1;align=center;verticalAlign=middle;resizable=0;points=[];autosize=1;strokeColor=none;fillColor=none;" vertex="1" parent="1">
          <mxGeometry x="970" y="140" width="130" height="30" as="geometry" />
        </mxCell>
        <mxCell id="rBGxycTvPe3GtGC3Vjkf-44" value="size in bytes&amp;nbsp;&lt;div&gt;=&lt;div&gt;&amp;nbsp;8 * previously read number&lt;/div&gt;&lt;/div&gt;" style="text;html=1;align=center;verticalAlign=middle;resizable=0;points=[];autosize=1;strokeColor=none;fillColor=none;" vertex="1" parent="1">
          <mxGeometry x="1120" y="220" width="170" height="60" as="geometry" />
        </mxCell>
        <mxCell id="rBGxycTvPe3GtGC3Vjkf-45" value="amount of unsigned&lt;div&gt;longs to read&lt;/div&gt;" style="text;html=1;align=center;verticalAlign=middle;resizable=0;points=[];autosize=1;strokeColor=none;fillColor=none;" vertex="1" parent="1">
          <mxGeometry x="970" y="330" width="130" height="40" as="geometry" />
        </mxCell>
        <mxCell id="kcycf7f6CgGDffXkoRQT-19" value="8 bytes&amp;nbsp;" style="whiteSpace=wrap;html=1;aspect=fixed;" parent="1" vertex="1">
          <mxGeometry x="95" y="240" width="80" height="80" as="geometry" />
        </mxCell>
        <mxCell id="rBGxycTvPe3GtGC3Vjkf-74" value="" style="swimlane;startSize=0;" vertex="1" parent="1">
          <mxGeometry y="210" width="270" height="160" as="geometry" />
        </mxCell>
        <mxCell id="rBGxycTvPe3GtGC3Vjkf-28" value="&lt;div&gt;press&lt;/div&gt;&lt;div&gt;timestamp&lt;/div&gt;" style="text;html=1;align=center;verticalAlign=middle;resizable=0;points=[];autosize=1;strokeColor=none;fillColor=none;" vertex="1" parent="rBGxycTvPe3GtGC3Vjkf-74">
          <mxGeometry x="95" y="110" width="80" height="40" as="geometry" />
        </mxCell>
        <mxCell id="rBGxycTvPe3GtGC3Vjkf-27" value="keystroke&lt;div&gt;char&lt;/div&gt;" style="text;html=1;align=center;verticalAlign=middle;resizable=0;points=[];autosize=1;strokeColor=none;fillColor=none;" vertex="1" parent="rBGxycTvPe3GtGC3Vjkf-74">
          <mxGeometry x="20" y="110" width="70" height="40" as="geometry" />
        </mxCell>
        <mxCell id="kcycf7f6CgGDffXkoRQT-18" value="1 byte" style="whiteSpace=wrap;html=1;aspect=fixed;" parent="rBGxycTvPe3GtGC3Vjkf-74" vertex="1">
          <mxGeometry x="10" y="30" width="80" height="80" as="geometry" />
        </mxCell>
        <mxCell id="rBGxycTvPe3GtGC3Vjkf-75" value="struct keystroke" style="text;html=1;align=center;verticalAlign=middle;resizable=0;points=[];autosize=1;strokeColor=none;fillColor=none;" vertex="1" parent="1">
          <mxGeometry x="-5" y="210" width="110" height="30" as="geometry" />
        </mxCell>
        <mxCell id="rBGxycTvPe3GtGC3Vjkf-76" value="8 bytes&amp;nbsp;" style="whiteSpace=wrap;html=1;aspect=fixed;" vertex="1" parent="1">
          <mxGeometry x="180" y="240" width="80" height="80" as="geometry" />
        </mxCell>
        <mxCell id="rBGxycTvPe3GtGC3Vjkf-77" value="release&amp;nbsp;&lt;div&gt;timestamp&lt;/div&gt;" style="text;html=1;align=center;verticalAlign=middle;resizable=0;points=[];autosize=1;strokeColor=none;fillColor=none;" vertex="1" parent="1">
          <mxGeometry x="180" y="320" width="80" height="40" as="geometry" />
        </mxCell>
        <mxCell id="rBGxycTvPe3GtGC3Vjkf-83" value="" style="shape=waypoint;sketch=0;size=6;pointerEvents=1;points=[];fillColor=none;resizable=0;rotatable=0;perimeter=centerPerimeter;snapToPoint=1;" vertex="1" parent="1">
          <mxGeometry x="634.91" y="761.25" width="20" height="20" as="geometry" />
        </mxCell>
        <mxCell id="rBGxycTvPe3GtGC3Vjkf-84" value="" style="shape=waypoint;sketch=0;size=6;pointerEvents=1;points=[];fillColor=none;resizable=0;rotatable=0;perimeter=centerPerimeter;snapToPoint=1;" vertex="1" parent="1">
          <mxGeometry x="664.91" y="761.25" width="20" height="20" as="geometry" />
        </mxCell>
        <mxCell id="rBGxycTvPe3GtGC3Vjkf-85" value="" style="shape=waypoint;sketch=0;size=6;pointerEvents=1;points=[];fillColor=none;resizable=0;rotatable=0;perimeter=centerPerimeter;snapToPoint=1;" vertex="1" parent="1">
          <mxGeometry x="694.91" y="761.25" width="20" height="20" as="geometry" />
        </mxCell>
        <mxCell id="rBGxycTvPe3GtGC3Vjkf-282" style="edgeStyle=orthogonalEdgeStyle;rounded=0;orthogonalLoop=1;jettySize=auto;html=1;exitX=0;exitY=0.5;exitDx=0;exitDy=0;strokeColor=#FF0000;" edge="1" parent="1" source="rBGxycTvPe3GtGC3Vjkf-87">
          <mxGeometry relative="1" as="geometry">
            <mxPoint x="-5.090000000000003" y="1461.25" as="targetPoint" />
            <Array as="points">
              <mxPoint x="-105.09" y="771.25" />
              <mxPoint x="-105.09" y="1461.25" />
            </Array>
          </mxGeometry>
        </mxCell>
        <mxCell id="rBGxycTvPe3GtGC3Vjkf-283" value="&lt;font style=&quot;font-size: 24px;&quot; color=&quot;#ff0000&quot;&gt;how many session&lt;/font&gt;&lt;div&gt;&lt;font style=&quot;font-size: 24px;&quot; color=&quot;#ff0000&quot;&gt;structs?&lt;/font&gt;&lt;/div&gt;" style="edgeLabel;html=1;align=center;verticalAlign=middle;resizable=0;points=[];" vertex="1" connectable="0" parent="rBGxycTvPe3GtGC3Vjkf-282">
          <mxGeometry x="-0.0025" y="4" relative="1" as="geometry">
            <mxPoint y="-1" as="offset" />
          </mxGeometry>
        </mxCell>
        <mxCell id="rBGxycTvPe3GtGC3Vjkf-87" value="8 bytes" style="whiteSpace=wrap;html=1;aspect=fixed;" vertex="1" parent="1">
          <mxGeometry x="-85.09" y="701.25" width="140" height="140" as="geometry" />
        </mxCell>
        <mxCell id="rBGxycTvPe3GtGC3Vjkf-88" value="8 bytes" style="whiteSpace=wrap;html=1;aspect=fixed;" vertex="1" parent="1">
          <mxGeometry x="54.91" y="701.25" width="140" height="140" as="geometry" />
        </mxCell>
        <mxCell id="rBGxycTvPe3GtGC3Vjkf-89" value="# of sessions" style="text;html=1;align=center;verticalAlign=middle;resizable=0;points=[];autosize=1;strokeColor=none;fillColor=none;" vertex="1" parent="1">
          <mxGeometry x="-60.09" y="711.25" width="90" height="30" as="geometry" />
        </mxCell>
        <mxCell id="rBGxycTvPe3GtGC3Vjkf-90" value="session 1&lt;div&gt;# of keystrokes&lt;/div&gt;" style="text;html=1;align=center;verticalAlign=middle;resizable=0;points=[];autosize=1;strokeColor=none;fillColor=none;" vertex="1" parent="1">
          <mxGeometry x="74.91" y="706.25" width="100" height="40" as="geometry" />
        </mxCell>
        <mxCell id="rBGxycTvPe3GtGC3Vjkf-91" value="1 byte" style="whiteSpace=wrap;html=1;aspect=fixed;" vertex="1" parent="1">
          <mxGeometry x="194.91" y="701.25" width="140" height="140" as="geometry" />
        </mxCell>
        <mxCell id="rBGxycTvPe3GtGC3Vjkf-92" value="session 1&lt;div&gt;keystroke #1 char&lt;/div&gt;" style="text;html=1;align=center;verticalAlign=middle;resizable=0;points=[];autosize=1;strokeColor=none;fillColor=none;" vertex="1" parent="1">
          <mxGeometry x="204.91" y="706.25" width="120" height="40" as="geometry" />
        </mxCell>
        <mxCell id="rBGxycTvPe3GtGC3Vjkf-93" value="8 bytes" style="whiteSpace=wrap;html=1;aspect=fixed;" vertex="1" parent="1">
          <mxGeometry x="334.91" y="701.25" width="140" height="140" as="geometry" />
        </mxCell>
        <mxCell id="rBGxycTvPe3GtGC3Vjkf-94" value="session 1&lt;div&gt;keystroke #1 press&lt;/div&gt;&lt;div&gt;timestamp&lt;/div&gt;" style="text;html=1;align=center;verticalAlign=middle;resizable=0;points=[];autosize=1;strokeColor=none;fillColor=none;" vertex="1" parent="1">
          <mxGeometry x="344.91" y="701.25" width="120" height="60" as="geometry" />
        </mxCell>
        <mxCell id="rBGxycTvPe3GtGC3Vjkf-95" value="8 bytes" style="whiteSpace=wrap;html=1;aspect=fixed;" vertex="1" parent="1">
          <mxGeometry x="474.91" y="701.25" width="140" height="140" as="geometry" />
        </mxCell>
        <mxCell id="rBGxycTvPe3GtGC3Vjkf-96" value="session 1&lt;div&gt;keystroke #1 release&lt;/div&gt;&lt;div&gt;timestamp&lt;/div&gt;" style="text;html=1;align=center;verticalAlign=middle;resizable=0;points=[];autosize=1;strokeColor=none;fillColor=none;" vertex="1" parent="1">
          <mxGeometry x="479.91" y="701.25" width="130" height="60" as="geometry" />
        </mxCell>
        <mxCell id="rBGxycTvPe3GtGC3Vjkf-97" value="session 1&lt;div&gt;keystroke #n char&lt;/div&gt;" style="text;html=1;align=center;verticalAlign=middle;resizable=0;points=[];autosize=1;strokeColor=none;fillColor=none;" vertex="1" parent="1">
          <mxGeometry x="744.91" y="706.25" width="120" height="40" as="geometry" />
        </mxCell>
        <mxCell id="rBGxycTvPe3GtGC3Vjkf-98" value="8 bytes" style="whiteSpace=wrap;html=1;aspect=fixed;" vertex="1" parent="1">
          <mxGeometry x="874.91" y="701.25" width="140" height="140" as="geometry" />
        </mxCell>
        <mxCell id="rBGxycTvPe3GtGC3Vjkf-99" value="session 1&lt;div&gt;keystroke #n press&lt;/div&gt;&lt;div&gt;timestamp&lt;/div&gt;" style="text;html=1;align=center;verticalAlign=middle;resizable=0;points=[];autosize=1;strokeColor=none;fillColor=none;" vertex="1" parent="1">
          <mxGeometry x="884.91" y="701.25" width="120" height="60" as="geometry" />
        </mxCell>
        <mxCell id="rBGxycTvPe3GtGC3Vjkf-100" value="8 bytes" style="whiteSpace=wrap;html=1;aspect=fixed;" vertex="1" parent="1">
          <mxGeometry x="1014.91" y="701.25" width="140" height="140" as="geometry" />
        </mxCell>
        <mxCell id="rBGxycTvPe3GtGC3Vjkf-101" value="session 1&lt;div&gt;keystroke #n release&lt;/div&gt;&lt;div&gt;timestamp&lt;/div&gt;" style="text;html=1;align=center;verticalAlign=middle;resizable=0;points=[];autosize=1;strokeColor=none;fillColor=none;" vertex="1" parent="1">
          <mxGeometry x="1019.91" y="701.25" width="130" height="60" as="geometry" />
        </mxCell>
        <mxCell id="rBGxycTvPe3GtGC3Vjkf-103" value="8 bytes" style="whiteSpace=wrap;html=1;aspect=fixed;" vertex="1" parent="1">
          <mxGeometry x="1154.91" y="701.25" width="140" height="140" as="geometry" />
        </mxCell>
        <mxCell id="rBGxycTvPe3GtGC3Vjkf-104" value="session 1&lt;div&gt;time deltas length&lt;/div&gt;" style="text;html=1;align=center;verticalAlign=middle;resizable=0;points=[];autosize=1;strokeColor=none;fillColor=none;" vertex="1" parent="1">
          <mxGeometry x="1164.91" y="706.25" width="120" height="40" as="geometry" />
        </mxCell>
        <mxCell id="rBGxycTvPe3GtGC3Vjkf-105" value="8 bytes" style="whiteSpace=wrap;html=1;aspect=fixed;" vertex="1" parent="1">
          <mxGeometry x="1294.91" y="701.25" width="140" height="140" as="geometry" />
        </mxCell>
        <mxCell id="rBGxycTvPe3GtGC3Vjkf-106" value="session 1&lt;div&gt;time delta #1&lt;/div&gt;" style="text;html=1;align=center;verticalAlign=middle;resizable=0;points=[];autosize=1;strokeColor=none;fillColor=none;" vertex="1" parent="1">
          <mxGeometry x="1319.91" y="706.25" width="90" height="40" as="geometry" />
        </mxCell>
        <mxCell id="rBGxycTvPe3GtGC3Vjkf-110" value="" style="shape=waypoint;sketch=0;size=6;pointerEvents=1;points=[];fillColor=none;resizable=0;rotatable=0;perimeter=centerPerimeter;snapToPoint=1;" vertex="1" parent="1">
          <mxGeometry x="1454.91" y="761.25" width="20" height="20" as="geometry" />
        </mxCell>
        <mxCell id="rBGxycTvPe3GtGC3Vjkf-111" value="" style="shape=waypoint;sketch=0;size=6;pointerEvents=1;points=[];fillColor=none;resizable=0;rotatable=0;perimeter=centerPerimeter;snapToPoint=1;" vertex="1" parent="1">
          <mxGeometry x="1484.91" y="761.25" width="20" height="20" as="geometry" />
        </mxCell>
        <mxCell id="rBGxycTvPe3GtGC3Vjkf-112" value="" style="shape=waypoint;sketch=0;size=6;pointerEvents=1;points=[];fillColor=none;resizable=0;rotatable=0;perimeter=centerPerimeter;snapToPoint=1;" vertex="1" parent="1">
          <mxGeometry x="1514.91" y="761.25" width="20" height="20" as="geometry" />
        </mxCell>
        <mxCell id="rBGxycTvPe3GtGC3Vjkf-113" value="8 bytes" style="whiteSpace=wrap;html=1;aspect=fixed;" vertex="1" parent="1">
          <mxGeometry x="1554.91" y="701.25" width="140" height="140" as="geometry" />
        </mxCell>
        <mxCell id="rBGxycTvPe3GtGC3Vjkf-114" value="session 1&lt;div&gt;time delta #n&lt;/div&gt;" style="text;html=1;align=center;verticalAlign=middle;resizable=0;points=[];autosize=1;strokeColor=none;fillColor=none;" vertex="1" parent="1">
          <mxGeometry x="1579.91" y="706.25" width="90" height="40" as="geometry" />
        </mxCell>
        <mxCell id="rBGxycTvPe3GtGC3Vjkf-115" value="&lt;font color=&quot;#ff0000&quot;&gt;read some&lt;/font&gt;&lt;div&gt;&lt;font color=&quot;#ff0000&quot;&gt;non-constant&lt;/font&gt;&lt;/div&gt;&lt;div&gt;&lt;font color=&quot;#ff0000&quot;&gt;number of&amp;nbsp;&lt;/font&gt;&lt;/div&gt;&lt;div&gt;&lt;font color=&quot;#ff0000&quot;&gt;keystrokes&lt;/font&gt;&lt;/div&gt;" style="text;html=1;align=center;verticalAlign=middle;resizable=0;points=[];autosize=1;strokeColor=none;fillColor=none;" vertex="1" parent="1">
          <mxGeometry x="629.91" y="691.25" width="90" height="70" as="geometry" />
        </mxCell>
        <mxCell id="rBGxycTvPe3GtGC3Vjkf-116" value="&lt;font color=&quot;#ff0000&quot;&gt;read some&lt;/font&gt;&lt;div&gt;&lt;font color=&quot;#ff0000&quot;&gt;non-constant&lt;/font&gt;&lt;/div&gt;&lt;div&gt;&lt;font color=&quot;#ff0000&quot;&gt;number of&amp;nbsp;&lt;/font&gt;&lt;/div&gt;&lt;div&gt;&lt;font color=&quot;#ff0000&quot;&gt;deltas&lt;/font&gt;&lt;/div&gt;" style="text;html=1;align=center;verticalAlign=middle;resizable=0;points=[];autosize=1;strokeColor=none;fillColor=none;" vertex="1" parent="1">
          <mxGeometry x="1449.91" y="696.25" width="90" height="70" as="geometry" />
        </mxCell>
        <mxCell id="rBGxycTvPe3GtGC3Vjkf-117" value="8 bytes" style="whiteSpace=wrap;html=1;aspect=fixed;" vertex="1" parent="1">
          <mxGeometry x="1694.91" y="701.25" width="140" height="140" as="geometry" />
        </mxCell>
        <mxCell id="rBGxycTvPe3GtGC3Vjkf-118" value="session 1&lt;div&gt;dwell times length&lt;/div&gt;" style="text;html=1;align=center;verticalAlign=middle;resizable=0;points=[];autosize=1;strokeColor=none;fillColor=none;" vertex="1" parent="1">
          <mxGeometry x="1704.91" y="706.25" width="120" height="40" as="geometry" />
        </mxCell>
        <mxCell id="rBGxycTvPe3GtGC3Vjkf-119" value="8 bytes" style="whiteSpace=wrap;html=1;aspect=fixed;" vertex="1" parent="1">
          <mxGeometry x="1834.91" y="701.25" width="140" height="140" as="geometry" />
        </mxCell>
        <mxCell id="rBGxycTvPe3GtGC3Vjkf-120" value="session 1&lt;div&gt;dwell time #1&lt;/div&gt;" style="text;html=1;align=center;verticalAlign=middle;resizable=0;points=[];autosize=1;strokeColor=none;fillColor=none;" vertex="1" parent="1">
          <mxGeometry x="1859.91" y="706.25" width="90" height="40" as="geometry" />
        </mxCell>
        <mxCell id="rBGxycTvPe3GtGC3Vjkf-121" value="" style="shape=waypoint;sketch=0;size=6;pointerEvents=1;points=[];fillColor=none;resizable=0;rotatable=0;perimeter=centerPerimeter;snapToPoint=1;" vertex="1" parent="1">
          <mxGeometry x="1994.91" y="761.25" width="20" height="20" as="geometry" />
        </mxCell>
        <mxCell id="rBGxycTvPe3GtGC3Vjkf-122" value="" style="shape=waypoint;sketch=0;size=6;pointerEvents=1;points=[];fillColor=none;resizable=0;rotatable=0;perimeter=centerPerimeter;snapToPoint=1;" vertex="1" parent="1">
          <mxGeometry x="2024.91" y="761.25" width="20" height="20" as="geometry" />
        </mxCell>
        <mxCell id="rBGxycTvPe3GtGC3Vjkf-123" value="" style="shape=waypoint;sketch=0;size=6;pointerEvents=1;points=[];fillColor=none;resizable=0;rotatable=0;perimeter=centerPerimeter;snapToPoint=1;" vertex="1" parent="1">
          <mxGeometry x="2054.91" y="761.25" width="20" height="20" as="geometry" />
        </mxCell>
        <mxCell id="rBGxycTvPe3GtGC3Vjkf-124" value="8 bytes" style="whiteSpace=wrap;html=1;aspect=fixed;" vertex="1" parent="1">
          <mxGeometry x="2094.91" y="701.25" width="140" height="140" as="geometry" />
        </mxCell>
        <mxCell id="rBGxycTvPe3GtGC3Vjkf-125" value="session 1&lt;div&gt;dwell time #n&lt;/div&gt;" style="text;html=1;align=center;verticalAlign=middle;resizable=0;points=[];autosize=1;strokeColor=none;fillColor=none;" vertex="1" parent="1">
          <mxGeometry x="2119.91" y="706.25" width="90" height="40" as="geometry" />
        </mxCell>
        <mxCell id="rBGxycTvPe3GtGC3Vjkf-126" value="&lt;font color=&quot;#ff0000&quot;&gt;read some&lt;/font&gt;&lt;div&gt;&lt;font color=&quot;#ff0000&quot;&gt;non-constant&lt;/font&gt;&lt;/div&gt;&lt;div&gt;&lt;font color=&quot;#ff0000&quot;&gt;number of&amp;nbsp;&lt;/font&gt;&lt;/div&gt;&lt;div&gt;&lt;font color=&quot;#ff0000&quot;&gt;dwell times&lt;/font&gt;&lt;/div&gt;" style="text;html=1;align=center;verticalAlign=middle;resizable=0;points=[];autosize=1;strokeColor=none;fillColor=none;" vertex="1" parent="1">
          <mxGeometry x="1989.91" y="696.25" width="90" height="70" as="geometry" />
        </mxCell>
        <mxCell id="rBGxycTvPe3GtGC3Vjkf-127" value="8 bytes" style="whiteSpace=wrap;html=1;aspect=fixed;" vertex="1" parent="1">
          <mxGeometry x="2234.91" y="701.25" width="140" height="140" as="geometry" />
        </mxCell>
        <mxCell id="rBGxycTvPe3GtGC3Vjkf-128" value="session 1&lt;div&gt;flight times length&lt;/div&gt;" style="text;html=1;align=center;verticalAlign=middle;resizable=0;points=[];autosize=1;strokeColor=none;fillColor=none;" vertex="1" parent="1">
          <mxGeometry x="2244.91" y="706.25" width="120" height="40" as="geometry" />
        </mxCell>
        <mxCell id="rBGxycTvPe3GtGC3Vjkf-129" value="8 bytes" style="whiteSpace=wrap;html=1;aspect=fixed;" vertex="1" parent="1">
          <mxGeometry x="2374.91" y="701.25" width="140" height="140" as="geometry" />
        </mxCell>
        <mxCell id="rBGxycTvPe3GtGC3Vjkf-130" value="session 1&lt;div&gt;flight time #1&lt;/div&gt;" style="text;html=1;align=center;verticalAlign=middle;resizable=0;points=[];autosize=1;strokeColor=none;fillColor=none;" vertex="1" parent="1">
          <mxGeometry x="2399.91" y="706.25" width="90" height="40" as="geometry" />
        </mxCell>
        <mxCell id="rBGxycTvPe3GtGC3Vjkf-131" value="" style="shape=waypoint;sketch=0;size=6;pointerEvents=1;points=[];fillColor=none;resizable=0;rotatable=0;perimeter=centerPerimeter;snapToPoint=1;" vertex="1" parent="1">
          <mxGeometry x="2534.91" y="761.25" width="20" height="20" as="geometry" />
        </mxCell>
        <mxCell id="rBGxycTvPe3GtGC3Vjkf-132" value="" style="shape=waypoint;sketch=0;size=6;pointerEvents=1;points=[];fillColor=none;resizable=0;rotatable=0;perimeter=centerPerimeter;snapToPoint=1;" vertex="1" parent="1">
          <mxGeometry x="2564.91" y="761.25" width="20" height="20" as="geometry" />
        </mxCell>
        <mxCell id="rBGxycTvPe3GtGC3Vjkf-133" value="" style="shape=waypoint;sketch=0;size=6;pointerEvents=1;points=[];fillColor=none;resizable=0;rotatable=0;perimeter=centerPerimeter;snapToPoint=1;" vertex="1" parent="1">
          <mxGeometry x="2594.91" y="761.25" width="20" height="20" as="geometry" />
        </mxCell>
        <mxCell id="rBGxycTvPe3GtGC3Vjkf-134" value="8 bytes" style="whiteSpace=wrap;html=1;aspect=fixed;" vertex="1" parent="1">
          <mxGeometry x="2634.91" y="701.25" width="140" height="140" as="geometry" />
        </mxCell>
        <mxCell id="rBGxycTvPe3GtGC3Vjkf-135" value="session 1&lt;div&gt;flight time #n&lt;/div&gt;" style="text;html=1;align=center;verticalAlign=middle;resizable=0;points=[];autosize=1;strokeColor=none;fillColor=none;" vertex="1" parent="1">
          <mxGeometry x="2659.91" y="706.25" width="90" height="40" as="geometry" />
        </mxCell>
        <mxCell id="rBGxycTvPe3GtGC3Vjkf-136" value="&lt;font color=&quot;#ff0000&quot;&gt;read some&lt;/font&gt;&lt;div&gt;&lt;font color=&quot;#ff0000&quot;&gt;non-constant&lt;/font&gt;&lt;/div&gt;&lt;div&gt;&lt;font color=&quot;#ff0000&quot;&gt;number of&amp;nbsp;&lt;/font&gt;&lt;/div&gt;&lt;div&gt;&lt;font color=&quot;#ff0000&quot;&gt;flight times&lt;/font&gt;&lt;/div&gt;" style="text;html=1;align=center;verticalAlign=middle;resizable=0;points=[];autosize=1;strokeColor=none;fillColor=none;" vertex="1" parent="1">
          <mxGeometry x="2529.91" y="696.25" width="90" height="70" as="geometry" />
        </mxCell>
        <mxCell id="rBGxycTvPe3GtGC3Vjkf-137" value="1 byte" style="whiteSpace=wrap;html=1;aspect=fixed;" vertex="1" parent="1">
          <mxGeometry x="734.91" y="1031.25" width="140" height="140" as="geometry" />
        </mxCell>
        <mxCell id="rBGxycTvPe3GtGC3Vjkf-138" value="" style="shape=waypoint;sketch=0;size=6;pointerEvents=1;points=[];fillColor=none;resizable=0;rotatable=0;perimeter=centerPerimeter;snapToPoint=1;" vertex="1" parent="1">
          <mxGeometry x="634.91" y="1091.25" width="20" height="20" as="geometry" />
        </mxCell>
        <mxCell id="rBGxycTvPe3GtGC3Vjkf-139" value="" style="shape=waypoint;sketch=0;size=6;pointerEvents=1;points=[];fillColor=none;resizable=0;rotatable=0;perimeter=centerPerimeter;snapToPoint=1;" vertex="1" parent="1">
          <mxGeometry x="664.91" y="1091.25" width="20" height="20" as="geometry" />
        </mxCell>
        <mxCell id="rBGxycTvPe3GtGC3Vjkf-140" value="" style="shape=waypoint;sketch=0;size=6;pointerEvents=1;points=[];fillColor=none;resizable=0;rotatable=0;perimeter=centerPerimeter;snapToPoint=1;" vertex="1" parent="1">
          <mxGeometry x="694.91" y="1091.25" width="20" height="20" as="geometry" />
        </mxCell>
        <mxCell id="rBGxycTvPe3GtGC3Vjkf-258" style="edgeStyle=orthogonalEdgeStyle;rounded=0;orthogonalLoop=1;jettySize=auto;html=1;strokeColor=#FF0000;" edge="1" parent="1" source="rBGxycTvPe3GtGC3Vjkf-141">
          <mxGeometry relative="1" as="geometry">
            <mxPoint x="674.91" y="1011.2500000000005" as="targetPoint" />
            <Array as="points">
              <mxPoint x="124.91" y="981.25" />
              <mxPoint x="675.91" y="981.25" />
              <mxPoint x="675.91" y="1011.25" />
            </Array>
          </mxGeometry>
        </mxCell>
        <mxCell id="rBGxycTvPe3GtGC3Vjkf-259" value="&lt;font color=&quot;#ff0000&quot;&gt;how many keystrokes?&lt;/font&gt;" style="edgeLabel;html=1;align=center;verticalAlign=middle;resizable=0;points=[];strokeColor=#FF0000;" vertex="1" connectable="0" parent="rBGxycTvPe3GtGC3Vjkf-258">
          <mxGeometry x="-0.0499" y="1" relative="1" as="geometry">
            <mxPoint as="offset" />
          </mxGeometry>
        </mxCell>
        <mxCell id="rBGxycTvPe3GtGC3Vjkf-141" value="8 bytes" style="whiteSpace=wrap;html=1;aspect=fixed;" vertex="1" parent="1">
          <mxGeometry x="54.91" y="1031.25" width="140" height="140" as="geometry" />
        </mxCell>
        <mxCell id="rBGxycTvPe3GtGC3Vjkf-142" value="session 2&lt;div&gt;# of keystrokes&lt;/div&gt;" style="text;html=1;align=center;verticalAlign=middle;resizable=0;points=[];autosize=1;strokeColor=none;fillColor=none;" vertex="1" parent="1">
          <mxGeometry x="74.91" y="1036.25" width="100" height="40" as="geometry" />
        </mxCell>
        <mxCell id="rBGxycTvPe3GtGC3Vjkf-143" value="1 byte" style="whiteSpace=wrap;html=1;aspect=fixed;" vertex="1" parent="1">
          <mxGeometry x="194.91" y="1031.25" width="140" height="140" as="geometry" />
        </mxCell>
        <mxCell id="rBGxycTvPe3GtGC3Vjkf-144" value="session 2&lt;div&gt;keystroke #1 char&lt;/div&gt;" style="text;html=1;align=center;verticalAlign=middle;resizable=0;points=[];autosize=1;strokeColor=none;fillColor=none;" vertex="1" parent="1">
          <mxGeometry x="204.91" y="1036.25" width="120" height="40" as="geometry" />
        </mxCell>
        <mxCell id="rBGxycTvPe3GtGC3Vjkf-145" value="8 bytes" style="whiteSpace=wrap;html=1;aspect=fixed;" vertex="1" parent="1">
          <mxGeometry x="334.91" y="1031.25" width="140" height="140" as="geometry" />
        </mxCell>
        <mxCell id="rBGxycTvPe3GtGC3Vjkf-146" value="session 2&lt;div&gt;keystroke #1 press&lt;/div&gt;&lt;div&gt;timestamp&lt;/div&gt;" style="text;html=1;align=center;verticalAlign=middle;resizable=0;points=[];autosize=1;strokeColor=none;fillColor=none;" vertex="1" parent="1">
          <mxGeometry x="344.91" y="1031.25" width="120" height="60" as="geometry" />
        </mxCell>
        <mxCell id="rBGxycTvPe3GtGC3Vjkf-147" value="8 bytes" style="whiteSpace=wrap;html=1;aspect=fixed;" vertex="1" parent="1">
          <mxGeometry x="474.91" y="1031.25" width="140" height="140" as="geometry" />
        </mxCell>
        <mxCell id="rBGxycTvPe3GtGC3Vjkf-148" value="session 2&lt;div&gt;keystroke #1 release&lt;/div&gt;&lt;div&gt;timestamp&lt;/div&gt;" style="text;html=1;align=center;verticalAlign=middle;resizable=0;points=[];autosize=1;strokeColor=none;fillColor=none;" vertex="1" parent="1">
          <mxGeometry x="479.91" y="1031.25" width="130" height="60" as="geometry" />
        </mxCell>
        <mxCell id="rBGxycTvPe3GtGC3Vjkf-149" value="session 2&lt;div&gt;keystroke #n char&lt;/div&gt;" style="text;html=1;align=center;verticalAlign=middle;resizable=0;points=[];autosize=1;strokeColor=none;fillColor=none;" vertex="1" parent="1">
          <mxGeometry x="744.91" y="1036.25" width="120" height="40" as="geometry" />
        </mxCell>
        <mxCell id="rBGxycTvPe3GtGC3Vjkf-150" value="8 bytes" style="whiteSpace=wrap;html=1;aspect=fixed;" vertex="1" parent="1">
          <mxGeometry x="874.91" y="1031.25" width="140" height="140" as="geometry" />
        </mxCell>
        <mxCell id="rBGxycTvPe3GtGC3Vjkf-151" value="session 2&lt;div&gt;keystroke #n press&lt;/div&gt;&lt;div&gt;timestamp&lt;/div&gt;" style="text;html=1;align=center;verticalAlign=middle;resizable=0;points=[];autosize=1;strokeColor=none;fillColor=none;" vertex="1" parent="1">
          <mxGeometry x="884.91" y="1031.25" width="120" height="60" as="geometry" />
        </mxCell>
        <mxCell id="rBGxycTvPe3GtGC3Vjkf-152" value="8 bytes" style="whiteSpace=wrap;html=1;aspect=fixed;" vertex="1" parent="1">
          <mxGeometry x="1014.91" y="1031.25" width="140" height="140" as="geometry" />
        </mxCell>
        <mxCell id="rBGxycTvPe3GtGC3Vjkf-153" value="session 2&lt;div&gt;keystroke #n release&lt;/div&gt;&lt;div&gt;timestamp&lt;/div&gt;" style="text;html=1;align=center;verticalAlign=middle;resizable=0;points=[];autosize=1;strokeColor=none;fillColor=none;" vertex="1" parent="1">
          <mxGeometry x="1019.91" y="1031.25" width="130" height="60" as="geometry" />
        </mxCell>
        <mxCell id="rBGxycTvPe3GtGC3Vjkf-154" value="8 bytes" style="whiteSpace=wrap;html=1;aspect=fixed;" vertex="1" parent="1">
          <mxGeometry x="1154.91" y="1031.25" width="140" height="140" as="geometry" />
        </mxCell>
        <mxCell id="rBGxycTvPe3GtGC3Vjkf-260" style="edgeStyle=orthogonalEdgeStyle;rounded=0;orthogonalLoop=1;jettySize=auto;html=1;strokeColor=#FF0000;" edge="1" parent="1" target="rBGxycTvPe3GtGC3Vjkf-164">
          <mxGeometry relative="1" as="geometry">
            <mxPoint x="1504.91" y="1021.25" as="targetPoint" />
            <mxPoint x="1224.91" y="1031.25" as="sourcePoint" />
            <Array as="points">
              <mxPoint x="1224.91" y="991.25" />
              <mxPoint x="1494.91" y="991.25" />
            </Array>
          </mxGeometry>
        </mxCell>
        <mxCell id="rBGxycTvPe3GtGC3Vjkf-261" value="&lt;font color=&quot;#ff0000&quot;&gt;how many time deltas?&lt;/font&gt;" style="edgeLabel;html=1;align=center;verticalAlign=middle;resizable=0;points=[];" vertex="1" connectable="0" parent="rBGxycTvPe3GtGC3Vjkf-260">
          <mxGeometry x="0.0182" y="1" relative="1" as="geometry">
            <mxPoint as="offset" />
          </mxGeometry>
        </mxCell>
        <mxCell id="rBGxycTvPe3GtGC3Vjkf-155" value="session 2&lt;div&gt;time deltas length&lt;/div&gt;" style="text;html=1;align=center;verticalAlign=middle;resizable=0;points=[];autosize=1;strokeColor=none;fillColor=none;" vertex="1" parent="1">
          <mxGeometry x="1164.91" y="1036.25" width="120" height="40" as="geometry" />
        </mxCell>
        <mxCell id="rBGxycTvPe3GtGC3Vjkf-156" value="8 bytes" style="whiteSpace=wrap;html=1;aspect=fixed;" vertex="1" parent="1">
          <mxGeometry x="1294.91" y="1031.25" width="140" height="140" as="geometry" />
        </mxCell>
        <mxCell id="rBGxycTvPe3GtGC3Vjkf-157" value="session 2&lt;div&gt;time delta #1&lt;/div&gt;" style="text;html=1;align=center;verticalAlign=middle;resizable=0;points=[];autosize=1;strokeColor=none;fillColor=none;" vertex="1" parent="1">
          <mxGeometry x="1319.91" y="1036.25" width="90" height="40" as="geometry" />
        </mxCell>
        <mxCell id="rBGxycTvPe3GtGC3Vjkf-158" value="" style="shape=waypoint;sketch=0;size=6;pointerEvents=1;points=[];fillColor=none;resizable=0;rotatable=0;perimeter=centerPerimeter;snapToPoint=1;" vertex="1" parent="1">
          <mxGeometry x="1454.91" y="1091.25" width="20" height="20" as="geometry" />
        </mxCell>
        <mxCell id="rBGxycTvPe3GtGC3Vjkf-159" value="" style="shape=waypoint;sketch=0;size=6;pointerEvents=1;points=[];fillColor=none;resizable=0;rotatable=0;perimeter=centerPerimeter;snapToPoint=1;" vertex="1" parent="1">
          <mxGeometry x="1484.91" y="1091.25" width="20" height="20" as="geometry" />
        </mxCell>
        <mxCell id="rBGxycTvPe3GtGC3Vjkf-160" value="" style="shape=waypoint;sketch=0;size=6;pointerEvents=1;points=[];fillColor=none;resizable=0;rotatable=0;perimeter=centerPerimeter;snapToPoint=1;" vertex="1" parent="1">
          <mxGeometry x="1514.91" y="1091.25" width="20" height="20" as="geometry" />
        </mxCell>
        <mxCell id="rBGxycTvPe3GtGC3Vjkf-161" value="8 bytes" style="whiteSpace=wrap;html=1;aspect=fixed;" vertex="1" parent="1">
          <mxGeometry x="1554.91" y="1031.25" width="140" height="140" as="geometry" />
        </mxCell>
        <mxCell id="rBGxycTvPe3GtGC3Vjkf-162" value="session 2&lt;div&gt;time delta #n&lt;/div&gt;" style="text;html=1;align=center;verticalAlign=middle;resizable=0;points=[];autosize=1;strokeColor=none;fillColor=none;" vertex="1" parent="1">
          <mxGeometry x="1579.91" y="1036.25" width="90" height="40" as="geometry" />
        </mxCell>
        <mxCell id="rBGxycTvPe3GtGC3Vjkf-163" value="&lt;font color=&quot;#ff0000&quot;&gt;read some&lt;/font&gt;&lt;div&gt;&lt;font color=&quot;#ff0000&quot;&gt;non-constant&lt;/font&gt;&lt;/div&gt;&lt;div&gt;&lt;font color=&quot;#ff0000&quot;&gt;number of&amp;nbsp;&lt;/font&gt;&lt;/div&gt;&lt;div&gt;&lt;font color=&quot;#ff0000&quot;&gt;keystrokes&lt;/font&gt;&lt;/div&gt;" style="text;html=1;align=center;verticalAlign=middle;resizable=0;points=[];autosize=1;strokeColor=none;fillColor=none;" vertex="1" parent="1">
          <mxGeometry x="629.91" y="1021.25" width="90" height="70" as="geometry" />
        </mxCell>
        <mxCell id="rBGxycTvPe3GtGC3Vjkf-164" value="&lt;font color=&quot;#ff0000&quot;&gt;read some&lt;/font&gt;&lt;div&gt;&lt;font color=&quot;#ff0000&quot;&gt;non-constant&lt;/font&gt;&lt;/div&gt;&lt;div&gt;&lt;font color=&quot;#ff0000&quot;&gt;number of&amp;nbsp;&lt;/font&gt;&lt;/div&gt;&lt;div&gt;&lt;font color=&quot;#ff0000&quot;&gt;deltas&lt;/font&gt;&lt;/div&gt;" style="text;html=1;align=center;verticalAlign=middle;resizable=0;points=[];autosize=1;strokeColor=none;fillColor=none;" vertex="1" parent="1">
          <mxGeometry x="1449.91" y="1026.25" width="90" height="70" as="geometry" />
        </mxCell>
        <mxCell id="rBGxycTvPe3GtGC3Vjkf-262" style="edgeStyle=orthogonalEdgeStyle;rounded=0;orthogonalLoop=1;jettySize=auto;html=1;exitX=0.5;exitY=0;exitDx=0;exitDy=0;entryX=0.502;entryY=-0.012;entryDx=0;entryDy=0;entryPerimeter=0;strokeColor=#FF0000;" edge="1" parent="1" source="rBGxycTvPe3GtGC3Vjkf-165" target="rBGxycTvPe3GtGC3Vjkf-174">
          <mxGeometry relative="1" as="geometry">
            <mxPoint x="2034.91" y="1001.25" as="targetPoint" />
            <Array as="points">
              <mxPoint x="1764.91" y="1001.25" />
              <mxPoint x="2034.91" y="1001.25" />
            </Array>
          </mxGeometry>
        </mxCell>
        <mxCell id="rBGxycTvPe3GtGC3Vjkf-263" value="&lt;font color=&quot;#ff0000&quot;&gt;how many dwell times?&lt;/font&gt;" style="edgeLabel;html=1;align=center;verticalAlign=middle;resizable=0;points=[];" vertex="1" connectable="0" parent="rBGxycTvPe3GtGC3Vjkf-262">
          <mxGeometry x="-0.0508" y="2" relative="1" as="geometry">
            <mxPoint as="offset" />
          </mxGeometry>
        </mxCell>
        <mxCell id="rBGxycTvPe3GtGC3Vjkf-165" value="8 bytes" style="whiteSpace=wrap;html=1;aspect=fixed;" vertex="1" parent="1">
          <mxGeometry x="1694.91" y="1031.25" width="140" height="140" as="geometry" />
        </mxCell>
        <mxCell id="rBGxycTvPe3GtGC3Vjkf-166" value="session 2&lt;div&gt;dwell times length&lt;/div&gt;" style="text;html=1;align=center;verticalAlign=middle;resizable=0;points=[];autosize=1;strokeColor=none;fillColor=none;" vertex="1" parent="1">
          <mxGeometry x="1704.91" y="1036.25" width="120" height="40" as="geometry" />
        </mxCell>
        <mxCell id="rBGxycTvPe3GtGC3Vjkf-167" value="8 bytes" style="whiteSpace=wrap;html=1;aspect=fixed;" vertex="1" parent="1">
          <mxGeometry x="1834.91" y="1031.25" width="140" height="140" as="geometry" />
        </mxCell>
        <mxCell id="rBGxycTvPe3GtGC3Vjkf-168" value="session 2&lt;div&gt;dwell time #1&lt;/div&gt;" style="text;html=1;align=center;verticalAlign=middle;resizable=0;points=[];autosize=1;strokeColor=none;fillColor=none;" vertex="1" parent="1">
          <mxGeometry x="1859.91" y="1036.25" width="90" height="40" as="geometry" />
        </mxCell>
        <mxCell id="rBGxycTvPe3GtGC3Vjkf-169" value="" style="shape=waypoint;sketch=0;size=6;pointerEvents=1;points=[];fillColor=none;resizable=0;rotatable=0;perimeter=centerPerimeter;snapToPoint=1;" vertex="1" parent="1">
          <mxGeometry x="1994.91" y="1091.25" width="20" height="20" as="geometry" />
        </mxCell>
        <mxCell id="rBGxycTvPe3GtGC3Vjkf-170" value="" style="shape=waypoint;sketch=0;size=6;pointerEvents=1;points=[];fillColor=none;resizable=0;rotatable=0;perimeter=centerPerimeter;snapToPoint=1;" vertex="1" parent="1">
          <mxGeometry x="2024.91" y="1091.25" width="20" height="20" as="geometry" />
        </mxCell>
        <mxCell id="rBGxycTvPe3GtGC3Vjkf-171" value="" style="shape=waypoint;sketch=0;size=6;pointerEvents=1;points=[];fillColor=none;resizable=0;rotatable=0;perimeter=centerPerimeter;snapToPoint=1;" vertex="1" parent="1">
          <mxGeometry x="2054.91" y="1091.25" width="20" height="20" as="geometry" />
        </mxCell>
        <mxCell id="rBGxycTvPe3GtGC3Vjkf-172" value="8 bytes" style="whiteSpace=wrap;html=1;aspect=fixed;" vertex="1" parent="1">
          <mxGeometry x="2094.91" y="1031.25" width="140" height="140" as="geometry" />
        </mxCell>
        <mxCell id="rBGxycTvPe3GtGC3Vjkf-173" value="session 2&lt;div&gt;dwell time #n&lt;/div&gt;" style="text;html=1;align=center;verticalAlign=middle;resizable=0;points=[];autosize=1;strokeColor=none;fillColor=none;" vertex="1" parent="1">
          <mxGeometry x="2119.91" y="1036.25" width="90" height="40" as="geometry" />
        </mxCell>
        <mxCell id="rBGxycTvPe3GtGC3Vjkf-174" value="&lt;font color=&quot;#ff0000&quot;&gt;read some&lt;/font&gt;&lt;div&gt;&lt;font color=&quot;#ff0000&quot;&gt;non-constant&lt;/font&gt;&lt;/div&gt;&lt;div&gt;&lt;font color=&quot;#ff0000&quot;&gt;number of&amp;nbsp;&lt;/font&gt;&lt;/div&gt;&lt;div&gt;&lt;font color=&quot;#ff0000&quot;&gt;dwell times&lt;/font&gt;&lt;/div&gt;" style="text;html=1;align=center;verticalAlign=middle;resizable=0;points=[];autosize=1;strokeColor=none;fillColor=none;" vertex="1" parent="1">
          <mxGeometry x="1989.91" y="1026.25" width="90" height="70" as="geometry" />
        </mxCell>
        <mxCell id="rBGxycTvPe3GtGC3Vjkf-175" value="8 bytes" style="whiteSpace=wrap;html=1;aspect=fixed;" vertex="1" parent="1">
          <mxGeometry x="2234.91" y="1031.25" width="140" height="140" as="geometry" />
        </mxCell>
        <mxCell id="rBGxycTvPe3GtGC3Vjkf-264" style="edgeStyle=orthogonalEdgeStyle;rounded=0;orthogonalLoop=1;jettySize=auto;html=1;entryX=0.495;entryY=0.024;entryDx=0;entryDy=0;entryPerimeter=0;strokeColor=#FF0000;exitX=0.5;exitY=0;exitDx=0;exitDy=0;" edge="1" parent="1" source="rBGxycTvPe3GtGC3Vjkf-175" target="rBGxycTvPe3GtGC3Vjkf-184">
          <mxGeometry relative="1" as="geometry">
            <mxPoint x="2574.91" y="1011.25" as="targetPoint" />
            <mxPoint x="2304.91" y="1028.25" as="sourcePoint" />
            <Array as="points">
              <mxPoint x="2304.91" y="1001.25" />
              <mxPoint x="2575.91" y="1001.25" />
              <mxPoint x="2575.91" y="1028.25" />
              <mxPoint x="2574.91" y="1028.25" />
            </Array>
          </mxGeometry>
        </mxCell>
        <mxCell id="rBGxycTvPe3GtGC3Vjkf-265" value="&lt;font color=&quot;#ff0000&quot;&gt;how many flight times?&lt;/font&gt;" style="edgeLabel;html=1;align=center;verticalAlign=middle;resizable=0;points=[];" vertex="1" connectable="0" parent="rBGxycTvPe3GtGC3Vjkf-264">
          <mxGeometry x="0.0348" relative="1" as="geometry">
            <mxPoint as="offset" />
          </mxGeometry>
        </mxCell>
        <mxCell id="rBGxycTvPe3GtGC3Vjkf-176" value="session 2&lt;div&gt;flight times length&lt;/div&gt;" style="text;html=1;align=center;verticalAlign=middle;resizable=0;points=[];autosize=1;strokeColor=none;fillColor=none;" vertex="1" parent="1">
          <mxGeometry x="2244.91" y="1036.25" width="120" height="40" as="geometry" />
        </mxCell>
        <mxCell id="rBGxycTvPe3GtGC3Vjkf-177" value="8 bytes" style="whiteSpace=wrap;html=1;aspect=fixed;" vertex="1" parent="1">
          <mxGeometry x="2374.91" y="1031.25" width="140" height="140" as="geometry" />
        </mxCell>
        <mxCell id="rBGxycTvPe3GtGC3Vjkf-178" value="session 2&lt;div&gt;flight time #1&lt;/div&gt;" style="text;html=1;align=center;verticalAlign=middle;resizable=0;points=[];autosize=1;strokeColor=none;fillColor=none;" vertex="1" parent="1">
          <mxGeometry x="2399.91" y="1036.25" width="90" height="40" as="geometry" />
        </mxCell>
        <mxCell id="rBGxycTvPe3GtGC3Vjkf-179" value="" style="shape=waypoint;sketch=0;size=6;pointerEvents=1;points=[];fillColor=none;resizable=0;rotatable=0;perimeter=centerPerimeter;snapToPoint=1;" vertex="1" parent="1">
          <mxGeometry x="2534.91" y="1091.25" width="20" height="20" as="geometry" />
        </mxCell>
        <mxCell id="rBGxycTvPe3GtGC3Vjkf-180" value="" style="shape=waypoint;sketch=0;size=6;pointerEvents=1;points=[];fillColor=none;resizable=0;rotatable=0;perimeter=centerPerimeter;snapToPoint=1;" vertex="1" parent="1">
          <mxGeometry x="2564.91" y="1091.25" width="20" height="20" as="geometry" />
        </mxCell>
        <mxCell id="rBGxycTvPe3GtGC3Vjkf-181" value="" style="shape=waypoint;sketch=0;size=6;pointerEvents=1;points=[];fillColor=none;resizable=0;rotatable=0;perimeter=centerPerimeter;snapToPoint=1;" vertex="1" parent="1">
          <mxGeometry x="2594.91" y="1091.25" width="20" height="20" as="geometry" />
        </mxCell>
        <mxCell id="rBGxycTvPe3GtGC3Vjkf-182" value="8 bytes" style="whiteSpace=wrap;html=1;aspect=fixed;" vertex="1" parent="1">
          <mxGeometry x="2634.91" y="1031.25" width="140" height="140" as="geometry" />
        </mxCell>
        <mxCell id="rBGxycTvPe3GtGC3Vjkf-183" value="session 2&lt;div&gt;flight time #n&lt;/div&gt;" style="text;html=1;align=center;verticalAlign=middle;resizable=0;points=[];autosize=1;strokeColor=none;fillColor=none;" vertex="1" parent="1">
          <mxGeometry x="2659.91" y="1036.25" width="90" height="40" as="geometry" />
        </mxCell>
        <mxCell id="rBGxycTvPe3GtGC3Vjkf-184" value="&lt;font color=&quot;#ff0000&quot;&gt;read some&lt;/font&gt;&lt;div&gt;&lt;font color=&quot;#ff0000&quot;&gt;non-constant&lt;/font&gt;&lt;/div&gt;&lt;div&gt;&lt;font color=&quot;#ff0000&quot;&gt;number of&amp;nbsp;&lt;/font&gt;&lt;/div&gt;&lt;div&gt;&lt;font color=&quot;#ff0000&quot;&gt;flight times&lt;/font&gt;&lt;/div&gt;" style="text;html=1;align=center;verticalAlign=middle;resizable=0;points=[];autosize=1;strokeColor=none;fillColor=none;" vertex="1" parent="1">
          <mxGeometry x="2529.91" y="1031.25" width="90" height="70" as="geometry" />
        </mxCell>
        <mxCell id="rBGxycTvPe3GtGC3Vjkf-194" value="" style="group;rotation=-90;" vertex="1" connectable="0" parent="1">
          <mxGeometry x="-75.09" y="1336.25" width="395" height="80" as="geometry" />
        </mxCell>
        <mxCell id="rBGxycTvPe3GtGC3Vjkf-192" value="" style="ellipse;whiteSpace=wrap;html=1;aspect=fixed;fillColor=#000000;rotation=-90;" vertex="1" parent="rBGxycTvPe3GtGC3Vjkf-194">
          <mxGeometry x="157.5" y="80" width="80" height="80" as="geometry" />
        </mxCell>
        <mxCell id="rBGxycTvPe3GtGC3Vjkf-193" value="" style="ellipse;whiteSpace=wrap;html=1;aspect=fixed;fillColor=#000000;rotation=-90;" vertex="1" parent="rBGxycTvPe3GtGC3Vjkf-194">
          <mxGeometry x="157.5" y="-80" width="80" height="80" as="geometry" />
        </mxCell>
        <mxCell id="rBGxycTvPe3GtGC3Vjkf-195" value="1 byte" style="whiteSpace=wrap;html=1;aspect=fixed;" vertex="1" parent="1">
          <mxGeometry x="734.91" y="1731.25" width="140" height="140" as="geometry" />
        </mxCell>
        <mxCell id="rBGxycTvPe3GtGC3Vjkf-196" value="" style="shape=waypoint;sketch=0;size=6;pointerEvents=1;points=[];fillColor=none;resizable=0;rotatable=0;perimeter=centerPerimeter;snapToPoint=1;" vertex="1" parent="1">
          <mxGeometry x="634.91" y="1791.25" width="20" height="20" as="geometry" />
        </mxCell>
        <mxCell id="rBGxycTvPe3GtGC3Vjkf-197" value="" style="shape=waypoint;sketch=0;size=6;pointerEvents=1;points=[];fillColor=none;resizable=0;rotatable=0;perimeter=centerPerimeter;snapToPoint=1;" vertex="1" parent="1">
          <mxGeometry x="664.91" y="1791.25" width="20" height="20" as="geometry" />
        </mxCell>
        <mxCell id="rBGxycTvPe3GtGC3Vjkf-198" value="" style="shape=waypoint;sketch=0;size=6;pointerEvents=1;points=[];fillColor=none;resizable=0;rotatable=0;perimeter=centerPerimeter;snapToPoint=1;" vertex="1" parent="1">
          <mxGeometry x="694.91" y="1791.25" width="20" height="20" as="geometry" />
        </mxCell>
        <mxCell id="rBGxycTvPe3GtGC3Vjkf-199" value="8 bytes" style="whiteSpace=wrap;html=1;aspect=fixed;" vertex="1" parent="1">
          <mxGeometry x="54.91" y="1731.25" width="140" height="140" as="geometry" />
        </mxCell>
        <mxCell id="rBGxycTvPe3GtGC3Vjkf-200" value="session #n&lt;div&gt;# of keystrokes&lt;/div&gt;" style="text;html=1;align=center;verticalAlign=middle;resizable=0;points=[];autosize=1;strokeColor=none;fillColor=none;" vertex="1" parent="1">
          <mxGeometry x="74.91" y="1736.25" width="100" height="40" as="geometry" />
        </mxCell>
        <mxCell id="rBGxycTvPe3GtGC3Vjkf-201" value="1 byte" style="whiteSpace=wrap;html=1;aspect=fixed;" vertex="1" parent="1">
          <mxGeometry x="194.91" y="1731.25" width="140" height="140" as="geometry" />
        </mxCell>
        <mxCell id="rBGxycTvPe3GtGC3Vjkf-202" value="session #n&lt;div&gt;keystroke #1 char&lt;/div&gt;" style="text;html=1;align=center;verticalAlign=middle;resizable=0;points=[];autosize=1;strokeColor=none;fillColor=none;" vertex="1" parent="1">
          <mxGeometry x="204.91" y="1736.25" width="120" height="40" as="geometry" />
        </mxCell>
        <mxCell id="rBGxycTvPe3GtGC3Vjkf-203" value="8 bytes" style="whiteSpace=wrap;html=1;aspect=fixed;" vertex="1" parent="1">
          <mxGeometry x="334.91" y="1731.25" width="140" height="140" as="geometry" />
        </mxCell>
        <mxCell id="rBGxycTvPe3GtGC3Vjkf-204" value="session #n&lt;div&gt;keystroke #1 press&lt;/div&gt;&lt;div&gt;timestamp&lt;/div&gt;" style="text;html=1;align=center;verticalAlign=middle;resizable=0;points=[];autosize=1;strokeColor=none;fillColor=none;" vertex="1" parent="1">
          <mxGeometry x="344.91" y="1731.25" width="120" height="60" as="geometry" />
        </mxCell>
        <mxCell id="rBGxycTvPe3GtGC3Vjkf-205" value="8 bytes" style="whiteSpace=wrap;html=1;aspect=fixed;" vertex="1" parent="1">
          <mxGeometry x="474.91" y="1731.25" width="140" height="140" as="geometry" />
        </mxCell>
        <mxCell id="rBGxycTvPe3GtGC3Vjkf-206" value="session #n&lt;div&gt;keystroke #1 release&lt;/div&gt;&lt;div&gt;timestamp&lt;/div&gt;" style="text;html=1;align=center;verticalAlign=middle;resizable=0;points=[];autosize=1;strokeColor=none;fillColor=none;" vertex="1" parent="1">
          <mxGeometry x="479.91" y="1731.25" width="130" height="60" as="geometry" />
        </mxCell>
        <mxCell id="rBGxycTvPe3GtGC3Vjkf-207" value="session #n&lt;div&gt;keystroke #n char&lt;/div&gt;" style="text;html=1;align=center;verticalAlign=middle;resizable=0;points=[];autosize=1;strokeColor=none;fillColor=none;" vertex="1" parent="1">
          <mxGeometry x="744.91" y="1736.25" width="120" height="40" as="geometry" />
        </mxCell>
        <mxCell id="rBGxycTvPe3GtGC3Vjkf-208" value="8 bytes" style="whiteSpace=wrap;html=1;aspect=fixed;" vertex="1" parent="1">
          <mxGeometry x="874.91" y="1731.25" width="140" height="140" as="geometry" />
        </mxCell>
        <mxCell id="rBGxycTvPe3GtGC3Vjkf-209" value="session #n&lt;div&gt;keystroke #n press&lt;/div&gt;&lt;div&gt;timestamp&lt;/div&gt;" style="text;html=1;align=center;verticalAlign=middle;resizable=0;points=[];autosize=1;strokeColor=none;fillColor=none;" vertex="1" parent="1">
          <mxGeometry x="884.91" y="1731.25" width="120" height="60" as="geometry" />
        </mxCell>
        <mxCell id="rBGxycTvPe3GtGC3Vjkf-210" value="8 bytes" style="whiteSpace=wrap;html=1;aspect=fixed;" vertex="1" parent="1">
          <mxGeometry x="1014.91" y="1731.25" width="140" height="140" as="geometry" />
        </mxCell>
        <mxCell id="rBGxycTvPe3GtGC3Vjkf-211" value="session #n&lt;div&gt;keystroke #n release&lt;/div&gt;&lt;div&gt;timestamp&lt;/div&gt;" style="text;html=1;align=center;verticalAlign=middle;resizable=0;points=[];autosize=1;strokeColor=none;fillColor=none;" vertex="1" parent="1">
          <mxGeometry x="1019.91" y="1731.25" width="130" height="60" as="geometry" />
        </mxCell>
        <mxCell id="rBGxycTvPe3GtGC3Vjkf-212" value="8 bytes" style="whiteSpace=wrap;html=1;aspect=fixed;" vertex="1" parent="1">
          <mxGeometry x="1154.91" y="1731.25" width="140" height="140" as="geometry" />
        </mxCell>
        <mxCell id="rBGxycTvPe3GtGC3Vjkf-213" value="session #n&lt;div&gt;time deltas length&lt;/div&gt;" style="text;html=1;align=center;verticalAlign=middle;resizable=0;points=[];autosize=1;strokeColor=none;fillColor=none;" vertex="1" parent="1">
          <mxGeometry x="1164.91" y="1736.25" width="120" height="40" as="geometry" />
        </mxCell>
        <mxCell id="rBGxycTvPe3GtGC3Vjkf-214" value="8 bytes" style="whiteSpace=wrap;html=1;aspect=fixed;" vertex="1" parent="1">
          <mxGeometry x="1294.91" y="1731.25" width="140" height="140" as="geometry" />
        </mxCell>
        <mxCell id="rBGxycTvPe3GtGC3Vjkf-215" value="session #n&lt;div&gt;time delta #1&lt;/div&gt;" style="text;html=1;align=center;verticalAlign=middle;resizable=0;points=[];autosize=1;strokeColor=none;fillColor=none;" vertex="1" parent="1">
          <mxGeometry x="1319.91" y="1736.25" width="90" height="40" as="geometry" />
        </mxCell>
        <mxCell id="rBGxycTvPe3GtGC3Vjkf-216" value="" style="shape=waypoint;sketch=0;size=6;pointerEvents=1;points=[];fillColor=none;resizable=0;rotatable=0;perimeter=centerPerimeter;snapToPoint=1;" vertex="1" parent="1">
          <mxGeometry x="1454.91" y="1791.25" width="20" height="20" as="geometry" />
        </mxCell>
        <mxCell id="rBGxycTvPe3GtGC3Vjkf-217" value="" style="shape=waypoint;sketch=0;size=6;pointerEvents=1;points=[];fillColor=none;resizable=0;rotatable=0;perimeter=centerPerimeter;snapToPoint=1;" vertex="1" parent="1">
          <mxGeometry x="1484.91" y="1791.25" width="20" height="20" as="geometry" />
        </mxCell>
        <mxCell id="rBGxycTvPe3GtGC3Vjkf-218" value="" style="shape=waypoint;sketch=0;size=6;pointerEvents=1;points=[];fillColor=none;resizable=0;rotatable=0;perimeter=centerPerimeter;snapToPoint=1;" vertex="1" parent="1">
          <mxGeometry x="1514.91" y="1791.25" width="20" height="20" as="geometry" />
        </mxCell>
        <mxCell id="rBGxycTvPe3GtGC3Vjkf-219" value="8 bytes" style="whiteSpace=wrap;html=1;aspect=fixed;" vertex="1" parent="1">
          <mxGeometry x="1554.91" y="1731.25" width="140" height="140" as="geometry" />
        </mxCell>
        <mxCell id="rBGxycTvPe3GtGC3Vjkf-220" value="session #n&lt;div&gt;time delta #n&lt;/div&gt;" style="text;html=1;align=center;verticalAlign=middle;resizable=0;points=[];autosize=1;strokeColor=none;fillColor=none;" vertex="1" parent="1">
          <mxGeometry x="1579.91" y="1736.25" width="90" height="40" as="geometry" />
        </mxCell>
        <mxCell id="rBGxycTvPe3GtGC3Vjkf-221" value="&lt;font color=&quot;#ff0000&quot;&gt;read some&lt;/font&gt;&lt;div&gt;&lt;font color=&quot;#ff0000&quot;&gt;non-constant&lt;/font&gt;&lt;/div&gt;&lt;div&gt;&lt;font color=&quot;#ff0000&quot;&gt;number of&amp;nbsp;&lt;/font&gt;&lt;/div&gt;&lt;div&gt;&lt;font color=&quot;#ff0000&quot;&gt;keystrokes&lt;/font&gt;&lt;/div&gt;" style="text;html=1;align=center;verticalAlign=middle;resizable=0;points=[];autosize=1;strokeColor=none;fillColor=none;" vertex="1" parent="1">
          <mxGeometry x="629.91" y="1721.25" width="90" height="70" as="geometry" />
        </mxCell>
        <mxCell id="rBGxycTvPe3GtGC3Vjkf-222" value="&lt;font color=&quot;#ff0000&quot;&gt;read some&lt;/font&gt;&lt;div&gt;&lt;font color=&quot;#ff0000&quot;&gt;non-constant&lt;/font&gt;&lt;/div&gt;&lt;div&gt;&lt;font color=&quot;#ff0000&quot;&gt;number of&amp;nbsp;&lt;/font&gt;&lt;/div&gt;&lt;div&gt;&lt;font color=&quot;#ff0000&quot;&gt;deltas&lt;/font&gt;&lt;/div&gt;" style="text;html=1;align=center;verticalAlign=middle;resizable=0;points=[];autosize=1;strokeColor=none;fillColor=none;" vertex="1" parent="1">
          <mxGeometry x="1449.91" y="1726.25" width="90" height="70" as="geometry" />
        </mxCell>
        <mxCell id="rBGxycTvPe3GtGC3Vjkf-223" value="8 bytes" style="whiteSpace=wrap;html=1;aspect=fixed;" vertex="1" parent="1">
          <mxGeometry x="1694.91" y="1731.25" width="140" height="140" as="geometry" />
        </mxCell>
        <mxCell id="rBGxycTvPe3GtGC3Vjkf-224" value="session #n&lt;div&gt;dwell times length&lt;/div&gt;" style="text;html=1;align=center;verticalAlign=middle;resizable=0;points=[];autosize=1;strokeColor=none;fillColor=none;" vertex="1" parent="1">
          <mxGeometry x="1704.91" y="1736.25" width="120" height="40" as="geometry" />
        </mxCell>
        <mxCell id="rBGxycTvPe3GtGC3Vjkf-225" value="8 bytes" style="whiteSpace=wrap;html=1;aspect=fixed;" vertex="1" parent="1">
          <mxGeometry x="1834.91" y="1731.25" width="140" height="140" as="geometry" />
        </mxCell>
        <mxCell id="rBGxycTvPe3GtGC3Vjkf-226" value="session #n&lt;div&gt;dwell time #1&lt;/div&gt;" style="text;html=1;align=center;verticalAlign=middle;resizable=0;points=[];autosize=1;strokeColor=none;fillColor=none;" vertex="1" parent="1">
          <mxGeometry x="1859.91" y="1736.25" width="90" height="40" as="geometry" />
        </mxCell>
        <mxCell id="rBGxycTvPe3GtGC3Vjkf-227" value="" style="shape=waypoint;sketch=0;size=6;pointerEvents=1;points=[];fillColor=none;resizable=0;rotatable=0;perimeter=centerPerimeter;snapToPoint=1;" vertex="1" parent="1">
          <mxGeometry x="1994.91" y="1791.25" width="20" height="20" as="geometry" />
        </mxCell>
        <mxCell id="rBGxycTvPe3GtGC3Vjkf-228" value="" style="shape=waypoint;sketch=0;size=6;pointerEvents=1;points=[];fillColor=none;resizable=0;rotatable=0;perimeter=centerPerimeter;snapToPoint=1;" vertex="1" parent="1">
          <mxGeometry x="2024.91" y="1791.25" width="20" height="20" as="geometry" />
        </mxCell>
        <mxCell id="rBGxycTvPe3GtGC3Vjkf-229" value="" style="shape=waypoint;sketch=0;size=6;pointerEvents=1;points=[];fillColor=none;resizable=0;rotatable=0;perimeter=centerPerimeter;snapToPoint=1;" vertex="1" parent="1">
          <mxGeometry x="2054.91" y="1791.25" width="20" height="20" as="geometry" />
        </mxCell>
        <mxCell id="rBGxycTvPe3GtGC3Vjkf-230" value="8 bytes" style="whiteSpace=wrap;html=1;aspect=fixed;" vertex="1" parent="1">
          <mxGeometry x="2094.91" y="1731.25" width="140" height="140" as="geometry" />
        </mxCell>
        <mxCell id="rBGxycTvPe3GtGC3Vjkf-231" value="session #n&lt;div&gt;dwell time #n&lt;/div&gt;" style="text;html=1;align=center;verticalAlign=middle;resizable=0;points=[];autosize=1;strokeColor=none;fillColor=none;" vertex="1" parent="1">
          <mxGeometry x="2119.91" y="1736.25" width="90" height="40" as="geometry" />
        </mxCell>
        <mxCell id="rBGxycTvPe3GtGC3Vjkf-232" value="&lt;font color=&quot;#ff0000&quot;&gt;read some&lt;/font&gt;&lt;div&gt;&lt;font color=&quot;#ff0000&quot;&gt;non-constant&lt;/font&gt;&lt;/div&gt;&lt;div&gt;&lt;font color=&quot;#ff0000&quot;&gt;number of&amp;nbsp;&lt;/font&gt;&lt;/div&gt;&lt;div&gt;&lt;font color=&quot;#ff0000&quot;&gt;dwell times&lt;/font&gt;&lt;/div&gt;" style="text;html=1;align=center;verticalAlign=middle;resizable=0;points=[];autosize=1;strokeColor=none;fillColor=none;" vertex="1" parent="1">
          <mxGeometry x="1989.91" y="1726.25" width="90" height="70" as="geometry" />
        </mxCell>
        <mxCell id="rBGxycTvPe3GtGC3Vjkf-233" value="8 bytes" style="whiteSpace=wrap;html=1;aspect=fixed;" vertex="1" parent="1">
          <mxGeometry x="2234.91" y="1731.25" width="140" height="140" as="geometry" />
        </mxCell>
        <mxCell id="rBGxycTvPe3GtGC3Vjkf-234" value="session #n&lt;div&gt;flight times length&lt;/div&gt;" style="text;html=1;align=center;verticalAlign=middle;resizable=0;points=[];autosize=1;strokeColor=none;fillColor=none;" vertex="1" parent="1">
          <mxGeometry x="2244.91" y="1736.25" width="120" height="40" as="geometry" />
        </mxCell>
        <mxCell id="rBGxycTvPe3GtGC3Vjkf-235" value="8 bytes" style="whiteSpace=wrap;html=1;aspect=fixed;" vertex="1" parent="1">
          <mxGeometry x="2374.91" y="1731.25" width="140" height="140" as="geometry" />
        </mxCell>
        <mxCell id="rBGxycTvPe3GtGC3Vjkf-236" value="session #n&lt;div&gt;flight time #1&lt;/div&gt;" style="text;html=1;align=center;verticalAlign=middle;resizable=0;points=[];autosize=1;strokeColor=none;fillColor=none;" vertex="1" parent="1">
          <mxGeometry x="2399.91" y="1736.25" width="90" height="40" as="geometry" />
        </mxCell>
        <mxCell id="rBGxycTvPe3GtGC3Vjkf-237" value="" style="shape=waypoint;sketch=0;size=6;pointerEvents=1;points=[];fillColor=none;resizable=0;rotatable=0;perimeter=centerPerimeter;snapToPoint=1;" vertex="1" parent="1">
          <mxGeometry x="2534.91" y="1791.25" width="20" height="20" as="geometry" />
        </mxCell>
        <mxCell id="rBGxycTvPe3GtGC3Vjkf-238" value="" style="shape=waypoint;sketch=0;size=6;pointerEvents=1;points=[];fillColor=none;resizable=0;rotatable=0;perimeter=centerPerimeter;snapToPoint=1;" vertex="1" parent="1">
          <mxGeometry x="2564.91" y="1791.25" width="20" height="20" as="geometry" />
        </mxCell>
        <mxCell id="rBGxycTvPe3GtGC3Vjkf-239" value="" style="shape=waypoint;sketch=0;size=6;pointerEvents=1;points=[];fillColor=none;resizable=0;rotatable=0;perimeter=centerPerimeter;snapToPoint=1;" vertex="1" parent="1">
          <mxGeometry x="2594.91" y="1791.25" width="20" height="20" as="geometry" />
        </mxCell>
        <mxCell id="rBGxycTvPe3GtGC3Vjkf-240" value="8 bytes" style="whiteSpace=wrap;html=1;aspect=fixed;" vertex="1" parent="1">
          <mxGeometry x="2634.91" y="1731.25" width="140" height="140" as="geometry" />
        </mxCell>
        <mxCell id="rBGxycTvPe3GtGC3Vjkf-241" value="session #n&lt;div&gt;flight time #n&lt;/div&gt;" style="text;html=1;align=center;verticalAlign=middle;resizable=0;points=[];autosize=1;strokeColor=none;fillColor=none;" vertex="1" parent="1">
          <mxGeometry x="2659.91" y="1736.25" width="90" height="40" as="geometry" />
        </mxCell>
        <mxCell id="rBGxycTvPe3GtGC3Vjkf-242" value="&lt;font color=&quot;#ff0000&quot;&gt;read some&lt;/font&gt;&lt;div&gt;&lt;font color=&quot;#ff0000&quot;&gt;non-constant&lt;/font&gt;&lt;/div&gt;&lt;div&gt;&lt;font color=&quot;#ff0000&quot;&gt;number of&amp;nbsp;&lt;/font&gt;&lt;/div&gt;&lt;div&gt;&lt;font color=&quot;#ff0000&quot;&gt;flight times&lt;/font&gt;&lt;/div&gt;" style="text;html=1;align=center;verticalAlign=middle;resizable=0;points=[];autosize=1;strokeColor=none;fillColor=none;" vertex="1" parent="1">
          <mxGeometry x="2529.91" y="1726.25" width="90" height="70" as="geometry" />
        </mxCell>
        <mxCell id="rBGxycTvPe3GtGC3Vjkf-244" value="&lt;font style=&quot;font-size: 48px;&quot;&gt;Read some non-constant number of session structs&lt;/font&gt;" style="text;html=1;align=center;verticalAlign=middle;resizable=0;points=[];autosize=1;strokeColor=none;fillColor=none;" vertex="1" parent="1">
          <mxGeometry x="204.91" y="1416.25" width="1120" height="70" as="geometry" />
        </mxCell>
        <mxCell id="rBGxycTvPe3GtGC3Vjkf-248" value="&lt;b&gt;&lt;font style=&quot;font-size: 24px;&quot;&gt;session #1&amp;nbsp;&lt;/font&gt;&lt;/b&gt;" style="text;html=1;align=center;verticalAlign=middle;resizable=0;points=[];autosize=1;strokeColor=none;fillColor=#FF9933;" vertex="1" parent="1">
          <mxGeometry x="1341.16" y="901.25" width="150" height="40" as="geometry" />
        </mxCell>
        <mxCell id="rBGxycTvPe3GtGC3Vjkf-253" value="" style="shape=curlyBracket;whiteSpace=wrap;html=1;rounded=1;labelPosition=left;verticalLabelPosition=middle;align=right;verticalAlign=middle;rotation=-90;size=0.3;strokeColor=#FF9933;fontStyle=1" vertex="1" parent="1">
          <mxGeometry x="1391.16" y="-480" width="50" height="2712.5" as="geometry" />
        </mxCell>
        <mxCell id="rBGxycTvPe3GtGC3Vjkf-254" value="&lt;b&gt;&lt;font style=&quot;font-size: 24px;&quot;&gt;session #2&amp;nbsp;&lt;/font&gt;&lt;/b&gt;" style="text;html=1;align=center;verticalAlign=middle;resizable=0;points=[];autosize=1;strokeColor=none;fillColor=#FF9933;" vertex="1" parent="1">
          <mxGeometry x="1341.16" y="1232.5" width="150" height="40" as="geometry" />
        </mxCell>
        <mxCell id="rBGxycTvPe3GtGC3Vjkf-255" value="" style="shape=curlyBracket;whiteSpace=wrap;html=1;rounded=1;labelPosition=left;verticalLabelPosition=middle;align=right;verticalAlign=middle;rotation=-90;size=0.3;strokeColor=#FF9933;fontStyle=1" vertex="1" parent="1">
          <mxGeometry x="1391.16" y="-148.75" width="50" height="2712.5" as="geometry" />
        </mxCell>
        <mxCell id="rBGxycTvPe3GtGC3Vjkf-256" value="&lt;b&gt;&lt;font style=&quot;font-size: 24px;&quot;&gt;session #n (final session)&lt;/font&gt;&lt;/b&gt;" style="text;html=1;align=center;verticalAlign=middle;resizable=0;points=[];autosize=1;strokeColor=none;fillColor=#FF9933;" vertex="1" parent="1">
          <mxGeometry x="1256.16" y="1932.5" width="320" height="40" as="geometry" />
        </mxCell>
        <mxCell id="rBGxycTvPe3GtGC3Vjkf-257" value="" style="shape=curlyBracket;whiteSpace=wrap;html=1;rounded=1;labelPosition=left;verticalLabelPosition=middle;align=right;verticalAlign=middle;rotation=-90;size=0.3;strokeColor=#FF9933;fontStyle=1" vertex="1" parent="1">
          <mxGeometry x="1391.16" y="551.25" width="50" height="2712.5" as="geometry" />
        </mxCell>
        <mxCell id="rBGxycTvPe3GtGC3Vjkf-191" value="" style="ellipse;whiteSpace=wrap;html=1;aspect=fixed;fillColor=#000000;rotation=-90;" vertex="1" parent="1">
          <mxGeometry x="82.41" y="1581.25" width="80" height="80" as="geometry" />
        </mxCell>
        <mxCell id="rBGxycTvPe3GtGC3Vjkf-266" style="edgeStyle=orthogonalEdgeStyle;rounded=0;orthogonalLoop=1;jettySize=auto;html=1;strokeColor=#FF0000;" edge="1" parent="1">
          <mxGeometry relative="1" as="geometry">
            <mxPoint x="668.91" y="681.2500000000005" as="targetPoint" />
            <mxPoint x="118.91" y="701.25" as="sourcePoint" />
            <Array as="points">
              <mxPoint x="118.91" y="651.25" />
              <mxPoint x="669.91" y="651.25" />
              <mxPoint x="669.91" y="681.25" />
            </Array>
          </mxGeometry>
        </mxCell>
        <mxCell id="rBGxycTvPe3GtGC3Vjkf-267" value="&lt;font color=&quot;#ff0000&quot;&gt;how many keystrokes?&lt;/font&gt;" style="edgeLabel;html=1;align=center;verticalAlign=middle;resizable=0;points=[];strokeColor=#FF0000;" vertex="1" connectable="0" parent="rBGxycTvPe3GtGC3Vjkf-266">
          <mxGeometry x="-0.0499" y="1" relative="1" as="geometry">
            <mxPoint as="offset" />
          </mxGeometry>
        </mxCell>
        <mxCell id="rBGxycTvPe3GtGC3Vjkf-268" style="edgeStyle=orthogonalEdgeStyle;rounded=0;orthogonalLoop=1;jettySize=auto;html=1;strokeColor=#FF0000;" edge="1" parent="1">
          <mxGeometry relative="1" as="geometry">
            <mxPoint x="1491.16" y="696.25" as="targetPoint" />
            <mxPoint x="1221.16" y="701.25" as="sourcePoint" />
            <Array as="points">
              <mxPoint x="1221.16" y="661.25" />
              <mxPoint x="1491.16" y="661.25" />
            </Array>
          </mxGeometry>
        </mxCell>
        <mxCell id="rBGxycTvPe3GtGC3Vjkf-269" value="&lt;font color=&quot;#ff0000&quot;&gt;how many time deltas?&lt;/font&gt;" style="edgeLabel;html=1;align=center;verticalAlign=middle;resizable=0;points=[];" vertex="1" connectable="0" parent="rBGxycTvPe3GtGC3Vjkf-268">
          <mxGeometry x="0.0182" y="1" relative="1" as="geometry">
            <mxPoint as="offset" />
          </mxGeometry>
        </mxCell>
        <mxCell id="rBGxycTvPe3GtGC3Vjkf-270" style="edgeStyle=orthogonalEdgeStyle;rounded=0;orthogonalLoop=1;jettySize=auto;html=1;exitX=0.5;exitY=0;exitDx=0;exitDy=0;entryX=0.502;entryY=-0.012;entryDx=0;entryDy=0;entryPerimeter=0;strokeColor=#FF0000;" edge="1" parent="1">
          <mxGeometry relative="1" as="geometry">
            <mxPoint x="2024.91" y="695.25" as="targetPoint" />
            <mxPoint x="1754.91" y="701.25" as="sourcePoint" />
            <Array as="points">
              <mxPoint x="1754.91" y="671.25" />
              <mxPoint x="2024.91" y="671.25" />
            </Array>
          </mxGeometry>
        </mxCell>
        <mxCell id="rBGxycTvPe3GtGC3Vjkf-271" value="&lt;font color=&quot;#ff0000&quot;&gt;how many dwell times?&lt;/font&gt;" style="edgeLabel;html=1;align=center;verticalAlign=middle;resizable=0;points=[];" vertex="1" connectable="0" parent="rBGxycTvPe3GtGC3Vjkf-270">
          <mxGeometry x="-0.0508" y="2" relative="1" as="geometry">
            <mxPoint as="offset" />
          </mxGeometry>
        </mxCell>
        <mxCell id="rBGxycTvPe3GtGC3Vjkf-272" style="edgeStyle=orthogonalEdgeStyle;rounded=0;orthogonalLoop=1;jettySize=auto;html=1;entryX=0.495;entryY=0.024;entryDx=0;entryDy=0;entryPerimeter=0;strokeColor=#FF0000;exitX=0.5;exitY=0;exitDx=0;exitDy=0;" edge="1" parent="1">
          <mxGeometry relative="1" as="geometry">
            <mxPoint x="2574.91" y="701.25" as="targetPoint" />
            <mxPoint x="2304.91" y="699.25" as="sourcePoint" />
            <Array as="points">
              <mxPoint x="2304.91" y="669.25" />
              <mxPoint x="2575.91" y="669.25" />
              <mxPoint x="2575.91" y="696.25" />
              <mxPoint x="2574.91" y="696.25" />
            </Array>
          </mxGeometry>
        </mxCell>
        <mxCell id="rBGxycTvPe3GtGC3Vjkf-273" value="&lt;font color=&quot;#ff0000&quot;&gt;how many flight times?&lt;/font&gt;" style="edgeLabel;html=1;align=center;verticalAlign=middle;resizable=0;points=[];" vertex="1" connectable="0" parent="rBGxycTvPe3GtGC3Vjkf-272">
          <mxGeometry x="0.0348" relative="1" as="geometry">
            <mxPoint as="offset" />
          </mxGeometry>
        </mxCell>
        <mxCell id="rBGxycTvPe3GtGC3Vjkf-274" style="edgeStyle=orthogonalEdgeStyle;rounded=0;orthogonalLoop=1;jettySize=auto;html=1;strokeColor=#FF0000;" edge="1" parent="1">
          <mxGeometry relative="1" as="geometry">
            <mxPoint x="664.91" y="1711.2500000000005" as="targetPoint" />
            <mxPoint x="114.91" y="1731.25" as="sourcePoint" />
            <Array as="points">
              <mxPoint x="114.91" y="1681.25" />
              <mxPoint x="665.91" y="1681.25" />
              <mxPoint x="665.91" y="1711.25" />
            </Array>
          </mxGeometry>
        </mxCell>
        <mxCell id="rBGxycTvPe3GtGC3Vjkf-275" value="&lt;font color=&quot;#ff0000&quot;&gt;how many keystrokes?&lt;/font&gt;" style="edgeLabel;html=1;align=center;verticalAlign=middle;resizable=0;points=[];strokeColor=#FF0000;" vertex="1" connectable="0" parent="rBGxycTvPe3GtGC3Vjkf-274">
          <mxGeometry x="-0.0499" y="1" relative="1" as="geometry">
            <mxPoint as="offset" />
          </mxGeometry>
        </mxCell>
        <mxCell id="rBGxycTvPe3GtGC3Vjkf-276" style="edgeStyle=orthogonalEdgeStyle;rounded=0;orthogonalLoop=1;jettySize=auto;html=1;strokeColor=#FF0000;" edge="1" parent="1">
          <mxGeometry relative="1" as="geometry">
            <mxPoint x="1491.16" y="1731.25" as="targetPoint" />
            <mxPoint x="1220.91" y="1731.25" as="sourcePoint" />
            <Array as="points">
              <mxPoint x="1221.16" y="1696.25" />
              <mxPoint x="1491.16" y="1696.25" />
            </Array>
          </mxGeometry>
        </mxCell>
        <mxCell id="rBGxycTvPe3GtGC3Vjkf-277" value="&lt;font color=&quot;#ff0000&quot;&gt;how many time deltas?&lt;/font&gt;" style="edgeLabel;html=1;align=center;verticalAlign=middle;resizable=0;points=[];" vertex="1" connectable="0" parent="rBGxycTvPe3GtGC3Vjkf-276">
          <mxGeometry x="0.0182" y="1" relative="1" as="geometry">
            <mxPoint as="offset" />
          </mxGeometry>
        </mxCell>
        <mxCell id="rBGxycTvPe3GtGC3Vjkf-278" style="edgeStyle=orthogonalEdgeStyle;rounded=0;orthogonalLoop=1;jettySize=auto;html=1;exitX=0.5;exitY=0;exitDx=0;exitDy=0;entryX=0.502;entryY=-0.012;entryDx=0;entryDy=0;entryPerimeter=0;strokeColor=#FF0000;" edge="1" parent="1">
          <mxGeometry relative="1" as="geometry">
            <mxPoint x="2034.91" y="1725.25" as="targetPoint" />
            <mxPoint x="1764.91" y="1731.25" as="sourcePoint" />
            <Array as="points">
              <mxPoint x="1764.91" y="1701.25" />
              <mxPoint x="2034.91" y="1701.25" />
            </Array>
          </mxGeometry>
        </mxCell>
        <mxCell id="rBGxycTvPe3GtGC3Vjkf-279" value="&lt;font color=&quot;#ff0000&quot;&gt;how many dwell times?&lt;/font&gt;" style="edgeLabel;html=1;align=center;verticalAlign=middle;resizable=0;points=[];" vertex="1" connectable="0" parent="rBGxycTvPe3GtGC3Vjkf-278">
          <mxGeometry x="-0.0508" y="2" relative="1" as="geometry">
            <mxPoint as="offset" />
          </mxGeometry>
        </mxCell>
        <mxCell id="rBGxycTvPe3GtGC3Vjkf-280" style="edgeStyle=orthogonalEdgeStyle;rounded=0;orthogonalLoop=1;jettySize=auto;html=1;entryX=0.495;entryY=0.024;entryDx=0;entryDy=0;entryPerimeter=0;strokeColor=#FF0000;exitX=0.5;exitY=0;exitDx=0;exitDy=0;" edge="1" parent="1">
          <mxGeometry relative="1" as="geometry">
            <mxPoint x="2574.91" y="1731.25" as="targetPoint" />
            <mxPoint x="2304.91" y="1729.25" as="sourcePoint" />
            <Array as="points">
              <mxPoint x="2304.91" y="1699.25" />
              <mxPoint x="2575.91" y="1699.25" />
              <mxPoint x="2575.91" y="1726.25" />
              <mxPoint x="2574.91" y="1726.25" />
            </Array>
          </mxGeometry>
        </mxCell>
        <mxCell id="rBGxycTvPe3GtGC3Vjkf-281" value="&lt;font color=&quot;#ff0000&quot;&gt;how many flight times?&lt;/font&gt;" style="edgeLabel;html=1;align=center;verticalAlign=middle;resizable=0;points=[];" vertex="1" connectable="0" parent="rBGxycTvPe3GtGC3Vjkf-280">
          <mxGeometry x="0.0348" relative="1" as="geometry">
            <mxPoint as="offset" />
          </mxGeometry>
        </mxCell>
        <mxCell id="rBGxycTvPe3GtGC3Vjkf-287" value="&lt;h1 style=&quot;margin-top: 0px;&quot;&gt;&lt;u&gt;Flattening a session struct&amp;nbsp;&lt;/u&gt;&lt;/h1&gt;&lt;p&gt;&lt;br&gt;&lt;/p&gt;" style="text;html=1;whiteSpace=wrap;overflow=hidden;rounded=0;" vertex="1" parent="1">
          <mxGeometry x="-230" y="-180" width="500" height="120" as="geometry" />
        </mxCell>
        <mxCell id="rBGxycTvPe3GtGC3Vjkf-290" value="&lt;h1 style=&quot;margin-top: 0px;&quot;&gt;&lt;u&gt;Serializing session structs to a binary file&lt;/u&gt;&lt;/h1&gt;" style="text;html=1;whiteSpace=wrap;overflow=hidden;rounded=0;" vertex="1" parent="1">
          <mxGeometry x="-225" y="560" width="490" height="70" as="geometry" />
        </mxCell>
        <mxCell id="rBGxycTvPe3GtGC3Vjkf-292" value="&lt;h1 style=&quot;margin-top: 0px;&quot;&gt;&lt;u&gt;Example pseudo code for Python script&lt;/u&gt;&lt;/h1&gt;" style="text;html=1;whiteSpace=wrap;overflow=hidden;rounded=0;" vertex="1" parent="1">
          <mxGeometry x="1460" y="-190" width="500" height="50" as="geometry" />
        </mxCell>
      </root>
    </mxGraphModel>
  </diagram>
</mxfile>
